<?xml version="1.0" encoding="UTF-8" standalone="no"?>
<!-- Created with Inkscape (http://www.inkscape.org/) -->

<svg
   xmlns:dc="http://purl.org/dc/elements/1.1/"
   xmlns:cc="http://creativecommons.org/ns#"
   xmlns:rdf="http://www.w3.org/1999/02/22-rdf-syntax-ns#"
   xmlns:svg="http://www.w3.org/2000/svg"
   xmlns="http://www.w3.org/2000/svg"
   xmlns:sodipodi="http://sodipodi.sourceforge.net/DTD/sodipodi-0.dtd"
   xmlns:inkscape="http://www.inkscape.org/namespaces/inkscape"
   width="1809.2697"
   height="1428.6744"
   id="svg2"
   version="1.1"
   inkscape:version="0.48.2 r9819"
   sodipodi:docname="dragon.svg">
  <defs
     id="defs4" />
  <sodipodi:namedview
     id="base"
     pagecolor="#ffffff"
     bordercolor="#666666"
     borderopacity="1.0"
     inkscape:pageopacity="0.0"
     inkscape:pageshadow="2"
     inkscape:zoom="0.3333148"
     inkscape:cx="1634.4126"
     inkscape:cy="744.99794"
     inkscape:document-units="px"
     inkscape:current-layer="layer2"
     showgrid="false"
     fit-margin-top="20"
     fit-margin-bottom="20"
     fit-margin-left="20"
     fit-margin-right="20"
     inkscape:window-width="1920"
     inkscape:window-height="1028"
     inkscape:window-x="-8"
     inkscape:window-y="-8"
     inkscape:window-maximized="1" />
  <metadata
     id="metadata7">
    <rdf:RDF>
      <cc:Work
         rdf:about="">
        <dc:format>image/svg+xml</dc:format>
        <dc:type
           rdf:resource="http://purl.org/dc/dcmitype/StillImage" />
        <dc:title></dc:title>
      </cc:Work>
    </rdf:RDF>
  </metadata>
  <g
     inkscape:groupmode="layer"
     id="layer2"
     inkscape:label="Dragon"
     transform="translate(-254.14991,593.31701)">
    <path
       style="fill:#000000"
       d=""
       id="path3797"
       inkscape:connector-curvature="0" />
    <path
       style="fill:#000000"
       d=""
       id="path3795"
       inkscape:connector-curvature="0" />
    <path
       style="fill:#000000"
       d="m 714.17597,813.52913 c -2.5017,-2.7644 -2.0606,-7.5358 1.037,-11.2171 l 2.692,-3.1992 -15.442,0.7409 c -13.6743,0.6562 -16.0144,1.0301 -20.442,3.2667 -7.4545,3.7654 -18.3426,7.2374 -22.6966,7.2374 -3.1604,0 -4.0551,-0.4584 -5.0175,-2.5705 -0.8391,-1.8416 -0.8765,-3.3512 -0.1319,-5.3238 l 1.0392,-2.7533 -14.4997,-1.1406 c -7.9749,-0.6273 -14.8685,-0.9127 -15.3191,-0.6342 -1.3982,0.8641 -21.191,4.4224 -24.5994,4.4224 -4.0965,0 -6.7675,-3.4948 -5.4311,-7.1064 0.8769,-2.3699 0.7363,-2.43 -14.2291,-6.0757 -13.3815,-3.2598 -16.1469,-3.6252 -24.1148,-3.1866 -11.6578,0.6417 -18.0428,-0.4922 -17.8852,-3.1762 0.063,-1.0753 0.4037,-2.6301 0.7568,-3.4551 0.5059,-1.1819 -1.427,-2.1065 -9.1148,-4.3603 -39.3577,-11.5379 -75.6941,-30.7961 -107.7568,-57.111 -19.4436,-15.958 -41.461,-35.6746 -50.7494,-45.4461 -17.3824,-18.2864 -46.9802,-58.9708 -60.1645,-82.7005 -19.6261,-35.324 -32.7599,-77.8603 -36.7067,-118.8821 -1.8627,-19.3595 -1.5967,-65.3218 0.4803,-83 5.4241,-46.1674 18.6107,-93.091 36.2937,-129.1497 15.5606,-31.7305 47.8324,-74.119 74.9498,-98.4452 41.0945,-36.8648 78.1226,-61.421098 127.3123,-84.431198 49.2553,-23.04074 86.148,-34.89693 144.4627,-46.42586 40.5619,-8.01917 68.6339,-10.44367 121.6218,-10.50412 42.9751,-0.049 48.8234,0.35451 102,7.03813 75.1383,9.44393 98.3582,13.44118 142.50003,24.53103 52.7357,13.24892 192.2088,61.989218 241.5,84.394718 30.341,13.7916 38.2804,17.5489 37.8697,17.922 -0.2033,0.1848 -10.4876,-2.9926 -22.8539,-7.0609 -12.3663,-4.0683 -24.9974,-8.102 -28.069,-8.9639 l -5.5848,-1.567 -3.431,3.4212 c -1.8871,1.8817 -6.131,4.442 -9.431,5.6897 -5.2342,1.9789 -7.1488,2.1904 -15,1.6564 -13.1193,-0.8922 -20,-2.6547 -20,-5.1231 0,-1.6232 1.5881,-2.4286 9,-4.5646 4.95,-1.4265 11.2256,-4.0165 13.9458,-5.7556 2.7202,-1.7391 4.7297,-3.162 4.4655,-3.162 -0.2641,0 -9.0147,-3.1445 -19.4457,-6.9878 -10.4311,-3.8432 -19.0799,-6.6557 -19.2196,-6.25 -4.0817,11.8572 -23.3315,17.2429 -38.6914,10.8251 -4.0106,-1.6758 -4.6895,-3.5652 -1.3046,-3.6312 4.2532,-0.083 9.6716,-2.6989 16.7209,-8.0726 l 7.0622,-5.3835 -3.7665,-1.5716 c -2.0716,-0.8644 -9.5369,-3.5644 -16.5895,-6 l -12.8229,-4.428398 -2.115,3 c -4.7162,6.689498 -10.4368,11.269498 -15.4004,12.329698 -9.8314,2.0998 -26.393,3.5161 -27.5529,2.3562 -1.6782,-1.6782 0.437,-3.6223 9.0828,-8.3482 4.1972,-2.2943 9.2919,-5.645898 11.3216,-7.447998 2.0296,-1.8021 5.1796,-4.0488 7,-4.9926 l 3.3097,-1.7159 -19,-6.3742 c -64.5918,-21.6692 -113.29233,-33.80905 -163.50003,-40.75651 -26.5895,-3.6793 -95.5719,-11.21736 -115.5,-12.62127 -22.1349,-1.55937 -87.0439,-0.64304 -108.5,1.53171 -56.5546,5.73227 -124.2039,22.44819 -170.5,42.12997 -53.3745,22.691 -89.6582,45.163298 -137.5,85.160598 -40.6332,33.9706 -74.8393,78.5405 -92.3448,120.3235 -12.0028,28.6487 -22.0849,66.5015 -26.1274,98.0939 -4.2031,32.848 -4.5561,91.5353 -0.7,116.399 6.1879,39.8984 19.5835,76.631 41.1351,112.7976 16.7701,28.1425 31.9108,47.6939 50.8907,65.7159 10.5539,10.0213 14.1464,12.5444 14.1464,9.9354 0,-1.5667 9.6292,-6.0168 13.0194,-6.0168 5.4978,0 17.3841,3.1235 21.1603,5.5606 4.0782,2.6319 8.8958,9.0951 11.9851,16.079 2.7979,6.3252 1.2742,7.2258 -4.5492,2.6889 -4.3493,-3.3886 -5.8704,-3.894 -17.914,-5.9527 -7.2386,-1.2373 -13.3033,-2.1074 -13.4772,-1.9335 -0.4418,0.4417 25.4084,22.5577 26.3664,22.5577 0.4292,0 1.7381,-0.8998 2.9087,-1.9996 2.6544,-2.4936 12.1797,-4.3304 19.6665,-3.7922 6.2581,0.4498 15.9863,4.8201 22.2831,10.0105 5.1226,4.2225 3.5642,5.3227 -5.2963,3.7393 -5.678,-1.0147 -8.1954,-1.01 -13.07,0.024 -3.6047,0.765 -8.0966,1.0081 -11.1476,0.6034 -3.1031,-0.4117 -4.8826,-0.3097 -4.5307,0.2597 1.5893,2.5716 32.5421,21.4776 43.7564,26.7264 3.5445,1.6591 3.7457,1.6467 6.333,-0.3884 3.7291,-2.9333 12.8633,-6.1877 17.2936,-6.1615 4.6728,0.028 10.7716,2.7742 18.6613,8.4042 7.48,5.3376 9.2414,7.2836 7.8512,8.6738 -0.687,0.687 -3.7286,0.3201 -9.4076,-1.1348 -7.4899,-1.9189 -8.9638,-2.0138 -13.7056,-0.8828 -3.2101,0.7657 -4.7934,1.5509 -4,1.9838 0.7223,0.3941 8.0632,3.0488 16.3132,5.8994 l 15,5.183 7.3186,-1.7073 c 11.2648,-2.6279 19.5101,-2.3644 26.5143,0.8473 6.9594,3.1912 13.6671,8.2902 13.6671,10.3893 0,1.225 -0.9902,1.4053 -5.25,0.9558 -4.853,-0.5122 -4.6829,-0.4095 2.25,1.3576 10.0019,2.5494 11.9016,2.508 23,-0.5013 10.2388,-2.7763 12.1241,-2.7632 28,0.1932 9.4099,1.7524 14.7734,3.9434 13.2883,5.4285 -0.5178,0.5178 -3.3512,1.2268 -6.2964,1.5757 -6.82,0.8077 -4.3987,1.7851 6.6397,2.6803 7.3875,0.599 8.5772,0.4341 13,-1.8023 4.0281,-2.0367 6.9504,-2.5771 16.9297,-3.1307 10.6414,-0.5904 12.2642,-0.4664 13.784,1.0534 1.0765,1.0765 1.4854,2.4701 1.0901,3.7154 -0.6148,1.937 -0.2451,1.982 13.2161,1.6084 13.3864,-0.3715 14.0501,-0.493 19.8885,-3.6408 5.241,-2.8257 8.074,-3.5176 21.4129,-5.2295 8.455,-1.0852 16.2508,-1.6943 17.324,-1.3537 1.5658,0.497 1.8477,1.2571 1.4271,3.8488 l -0.5241,3.2295 9.6601,-1.3206 c 13.9254,-1.9038 18.9749,-3.1082 24.6392,-5.8771 6.8706,-3.3586 34.0187,-9.6664 38.5208,-8.9502 3.7683,0.5995 18.5023,-3.3857 47,-12.7123 19.7251,-6.4556 18.8878,-6.2105 17,-4.9766 -3.2819,2.145 -46.2985,16.1956 -61.5158,20.093 -4.3479,1.1136 -18.6478,9.7873 -27.4842,16.6708 -6.0292,4.6966 -17.8381,10.4068 -21.5218,10.4068 -5.7199,0 -7.2533,-6.7369 -2.7512,-12.0874 l 2.727,-3.2408 -4.477,0.75 c -2.4624,0.4124 -9.9604,1.5696 -16.6623,2.5714 -11.3847,1.7019 -12.83,2.1819 -22,7.3069 -13.5538,7.5752 -28.3556,13.6999 -33.1087,13.6999 -2.5044,0 -4.4872,-0.6532 -5.551,-1.8287 z m 143.545,-20.3713 c -2.215,-2.215 -1.231,-5.3604 3.5505,-11.3496 5.6078,-7.0242 10.4797,-9.727 21.8228,-12.1064 9.1708,-1.9238 11.4267,-1.5049 11.4267,2.1221 0,3.8375 -13.7994,14.3369 -24.8784,18.9291 -9.6612,4.0045 -10.211,4.1154 -11.9216,2.4048 z m 49.8867,-16.7133 c -3.9525,-3.9525 -2.8241,-6.8054 6.2078,-15.6962 17.706,-17.4295 45.5201,-31.2754 78.2055,-38.931 l 6,-1.4054 -6,0.54 c -3.3,0.297 -11.175,1.4383 -17.5,2.5363 -6.325,1.098 -17.7515,3.0767 -25.3922,4.3972 -15.7751,2.7263 -36.6831,8.289 -45.0307,11.9807 -10.8326,4.7907 -14.6515,1.6943 -6.0296,-4.8889 6.7362,-5.1435 17.5569,-9.2355 32.0543,-12.1218 19.2719,-3.8368 30.4019,-4.7903 57.1845,-4.899 20.52243,-0.083 24.42923,0.1326 25.20843,1.393 1.2385,2.0036 0.8726,2.2534 -9.4947,6.4839 -4.95003,2.0199 -16.20003,7.7499 -25.00003,12.7333 -8.8,4.9834 -21.175,11.9917 -27.5,15.574 -10.8617,6.1516 -22.515,13.6221 -31.5,20.1934 -5.6242,4.1134 -8.8196,4.7042 -11.4133,2.1105 z m 97.10083,-56.7698 c -0.7219,-0.2889 -1.5844,-0.2534 -1.9167,0.079 -0.3323,0.3323 0.2584,0.5687 1.3125,0.5253 1.165,-0.048 1.4019,-0.285 0.6042,-0.6042 z m -301.68753,50.6318 c -36.133,-1.3903 -74.6445,-8.4887 -112,-20.6438 -32.1572,-10.4636 -81.0464,-34.0809 -109.9682,-53.1232 -35.0579,-23.0824 -69.0092,-57.8634 -89.0064,-91.1817 -26.3084,-43.8337 -36.5254,-80.8902 -36.5254,-132.4763 0,-30.4495 2.9702,-51.3528 12.5414,-88.2619 11.9853,-46.2187 24.8836,-73.8698 49.7822,-106.7221 21.796,-28.7587 72.4069,-69.343 111.3611,-89.2993 34.5809,-17.7158 68.7734,-29.4342 108.3153,-37.1215 46.8978,-9.1175 67.6673,-11.3884 116,-12.6834 35.2652,-0.9449 66.2461,1.0962 108,7.1152 64.8466,9.348 119.2829,23.7115 170.50003,44.9879 37.511,15.5828 115.325,52.1813 112.909,53.105 -0.6001,0.2294 -8.0251,-2.5652 -16.5,-6.2102 -42.3653,-18.2211 -98.1955,-40.4506 -119.909,-47.7434 -73.13603,-24.5637 -161.98183,-40.7041 -223.94993,-40.6844 -20.3139,0.01 -56.0629,1.5454 -70.5501,3.0371 -23.8698,2.4579 -65.9665,10.3735 -93.1696,17.5192 -37.5883,9.8736 -82.2424,29.3438 -110.8047,48.3136 -13.3597,8.8729 -39.2296,28.7612 -51.6758,39.7274 -25.1814,22.1873 -49.0747,56.7389 -61.7785,89.3368 -9.3528,23.9992 -18.9084,62.2825 -22.6041,90.5603 -2.7373,20.9443 -1.7075,66.0655 2.0313,89 5.6709,34.7864 24.8962,75.8096 50.3725,107.4854 10.1884,12.6678 32.2166,34.6358 44.913,44.7904 24.2659,19.4079 61.5301,41.089 95.8224,55.7516 31.5222,13.4781 76.1308,24.9778 112.4362,28.9849 19.7753,2.1827 75.8559,3.1049 95.9573,1.578 33.5622,-2.5494 75.1929,-8.3844 107.3601,-15.0478 10.2797,-2.1294 12.331,-2.4003 11.4413,-1.5106 -0.9793,0.9793 -47.7835,11.4526 -62.4992,13.9854 -18.7357,3.2247 -47.5843,6.175 -72.8226,7.4476 -21.6549,1.0919 -27.2232,1.0903 -55.9796,-0.016 z m -309.5485,-111.0806 c -4.0983,-2.8403 -9.9285,-6.1459 -12.956,-7.3457 -6.9406,-2.7505 -18.722,-10.1429 -20.0148,-12.5585 -2.5989,-4.8561 0.8754,-9.9639 6.7774,-9.9639 4.8899,0 17.8985,5.7232 21.7399,9.5647 4.3108,4.3107 14.7042,21.1505 14.3095,23.1847 -0.5552,2.8617 -2.3093,2.3489 -9.856,-2.8813 z m -28.6609,-39.9776 c -0.6102,-0.6101 -3.8592,-1.2118 -7.2199,-1.337 -5.4516,-0.2031 -6.8361,-0.7265 -12.8406,-4.8546 -9.4287,-6.4822 -15.2301,-12.0546 -15.2301,-14.6288 0,-3.1502 4.3528,-7.0701 7.8509,-7.0701 3.3935,0 14.8691,4.4738 21.6123,8.4256 5.3585,3.1403 10.2143,9.3387 11.127,14.2034 0.9286,4.9498 -2.3532,8.208 -5.2996,5.2615 z m -22.3526,-40.6034 c -2.6681,-5.2672 -4.5029,-7.4808 -8.1936,-9.8847 -2.6896,-1.7518 -7.7998,-6.9653 -11.7624,-12 -6.0075,-7.6328 -6.9693,-9.4005 -6.7444,-12.3953 0.323,-4.2994 4.0369,-6.6136 8.1216,-5.0606 3.6444,1.3856 17.4763,14.8107 19.6506,19.0727 4.355,8.5365 6.9373,26.1092 3.9282,26.7318 -1.0634,0.2201 -2.6593,-1.8432 -5,-6.4639 z m -14.6788,-42.4947 c -0.5808,-0.7108 -2.6115,-4.6674 -4.5127,-8.7924 -1.9012,-4.125 -5.2818,-10.3201 -7.5123,-13.7668 -5.1099,-7.8961 -9.3191,-23.5568 -7.4399,-27.6811 1.2892,-2.8295 5.7656,-3.5481 8.1111,-1.3021 1.0651,1.0199 1.2057,0.6978 0.7643,-1.75 -0.2976,-1.65 -0.8349,-5.2197 -1.194,-7.9326 -0.3592,-2.713 -2.0121,-8.788 -3.6733,-13.5 -2.4811,-7.0379 -3.112,-10.663 -3.5342,-20.3055 -0.4295,-9.8105 -0.2436,-12.1505 1.132,-14.25 3.4054,-5.1972 9.5475,-2.1953 11.6329,5.6854 0.6262,2.3665 1.9847,7.3887 3.0189,11.1604 1.6142,5.8874 1.7488,8.2221 0.9512,16.5 -1.0194,10.5796 -3.7151,25.8051 -4.9641,28.0369 -0.5056,0.9035 0.4181,3.4846 2.5473,7.1175 4.0082,6.8389 4.882,10.5535 6.4305,27.3367 1.1663,12.6399 0.6723,16.4175 -1.7577,13.4436 z m 704.05573,-80.4142 c -0.3423,-0.892 0.1758,-3.8414 1.1512,-6.5541 1.6898,-4.6991 1.6914,-5.1937 0.034,-10.4614 -2.2952,-7.2971 -1.6434,-15.0189 1.4813,-17.5491 8.3826,-6.7878 18.0883,5.7697 14.6636,18.9721 -2.6129,10.0731 -15.1278,21.3328 -17.3306,15.5925 z m 603.1851,-23.4794 c -33.8766,-2.7823 -91.3631,-14.8568 -135.408,-28.4412 -55.8723,-17.2323 -97.304,-35.1886 -147.092,-63.7491 -33.2862,-19.0944 -67,-39.4171 -67,-40.3876 0,-0.2714 4.3875,1.8812 9.75,4.7836 5.3625,2.9024 11.8533,6.3008 14.4239,7.552 2.5707,1.2511 13.3707,6.957 24,12.6798 42.7869,23.0359 72.074,36.8334 104.4179,49.1923 58.4057,22.3174 121.5787,38.5311 177.2831,45.5006 32.8311,4.1078 94.15,2.1801 129.1796,-4.061 39.49,-7.0357 92.8328,-26.3479 123.8496,-44.8384 24.3131,-14.4941 53.8162,-40.6987 68.8245,-61.1298 14.4579,-19.6818 33.3689,-54.6486 40.2145,-74.3575 9.8121,-28.2494 15.0692,-65.7129 13.0129,-92.7334 -1.9327,-25.3959 -9.5898,-63.824398 -17.0183,-85.409098 -9.4235,-27.38141 -26.0998,-59.0166601 -43.6609,-82.82562 -8.8106,-11.94522 -33.3404,-36.67284 -48.0609,-48.44859 -31.948,-25.55693 -70.8047,-45.961052 -114.5242,-60.138052 -36.0032,-11.67482 -69.4576,-16.17026 -120.6917,-16.21793 -32.8615,-0.0306 -53.7452,1.89575 -94.4527,8.71241 -30.5144,5.10978 -41.6965,7.68252 -74.5473,17.1517 -30.9335,8.9165 -45.9079,12.69156 -46.8009,11.79856 -0.6501,-0.65018 -0.7639,-0.57579 4.9642,-3.2473 l 4.6632,-2.17492 -2.7681,-6.80513 c -7.0234,-17.26576 -7.536,-28.11483 -2.0958,-44.35279 5.1393,-15.33982 11.3585,-26.40991 21.6576,-38.5505 l 5.2099,-6.14132 -12.1651,-8.07043 c -6.6907,-4.43873 -20.715,-14.85421 -31.165,-23.14551 -10.45,-8.2913 -20.6688,-16.24143 -22.7083,-17.66697 l -3.7084,-2.59188 -3.7542,3.09455 c -4.3871,3.61617 -6.1287,2.8521 -4.4533,-1.95374 1.7319,-4.96815 1.2768,-7.21844 -1.9807,-9.79364 -1.6468,-1.30191 -3.1483,-2.20191 -3.3367,-2 -0.1883,0.2019 0.032,2.6171 0.49,5.3671 2.1646,13.00206 -0.3534,21.01979 -9.8141,31.25 -6.8207,7.37546 -10.0283,6.77697 -7.2395,-1.35078 0.6263,-1.82532 0.7189,-9.32996 0.25,-20.26032 l -0.7448,-17.3611 -17.6929,17.3611 c -20.0867,19.70995 -25.4426,27.05327 -36.3661,49.8611 -3.5561,7.425 -7.4314,15.3 -8.6119,17.5 -1.1804,2.2 -3.9147,7.28673 -6.0761,11.30384 -2.1615,4.01712 -4.4526,7.12793 -5.0915,6.91293 -0.799,-0.26892 -1.1615,-4.28178 -1.1615,-12.85787 l 0,-12.46695 7.6526,-15.48479 c 8.3646,-16.9256 16.4157,-29.58372 25.7007,-40.40716 4.9276,-5.74412 23.7809,-23.17579 36.4328,-33.68564 l 2.786,-2.31436 -15.2528,-12 c -38.4039,-30.21387 -85.1747,-64.21746 -104.0174,-75.6234 -22.7893,-13.79493 -35.8054,-19.20212 -56.6512,-23.53432 -21.4876,-4.46557 -48.081,-3.21577 -62.6507,2.94437 -8.3168,3.51635 -20.7342,11.27936 -25.397,15.87741 -18.146,17.89399 -24.0266,47.8224 -16.5829,84.396 2.3984,11.78454 8.0075,27.83787 12.6909,36.32222 10.2828,18.62781 29.1684,39.60157 45.039,50.01893 5.3625,3.51991 9.75,6.56624 9.75,6.76963 0,0.2034 -1.9125,-0.59934 -4.25,-1.78385 -18.6866,-9.46932 -41.5298,-31.69325 -54.6007,-53.12048 -14.0714,-23.0673 -23.1493,-50.26678 -23.1493,-69.36043 0,-16.28614 3.3802,-31.34616 9.8547,-43.90608 3.983,-7.72678 17.4225,-22.2168 24.972,-26.92413 12.4892,-7.78728 31.1626,-12.54951 49.6733,-12.66804 35.8411,-0.22949 66.8226,11.28928 111.4555,41.43861 16.3836,11.06709 62.7048,45.6552 84.5445,63.1296 8.8,7.04105 16.7378,13.26656 17.6395,13.83447 1.2716,0.80088 2.5057,0.34859 5.5,-2.01573 4.8308,-3.8145 34.7322,-23.45597 39.096,-25.68126 1.8067,-0.92129 3.5024,-2.71338 3.8399,-4.05811 0.997,-3.97212 3.8944,-5.90313 7.8857,-5.25543 2.6505,0.43011 5.4001,-0.25442 11.264,-2.80427 8.2978,-3.60821 8.1911,-4.01731 -1.2709,-4.8746 -7.6518,-0.69327 -19.9777,-4.82484 -23.075,-7.7346 -3.1023,-2.91445 -2.5383,-3.26876 2.111,-1.32615 3.3089,1.38254 5.5973,1.44519 17.7911,0.48712 7.6966,-0.60472 14.3819,-1.33935 14.8563,-1.6325 0.4743,-0.29316 0.8624,-1.44107 0.8624,-2.55092 0,-2.91575 5.3287,-7.86406 8.4685,-7.86406 2.8721,0 7.5315,3.99314 7.5315,6.45455 0,1.33952 2.5228,1.54545 18.9326,1.54545 18.3876,0 18.9519,0.0608 19.6028,2.11151 0.4039,1.2726 0.1327,2.6148 -0.6826,3.37829 -0.744,0.69674 -8.301,2.68226 -16.7933,4.41228 -8.4922,1.73002 -15.5817,3.28682 -15.7545,3.45955 -0.6875,0.68756 1.9599,6.63837 2.9534,6.63837 1.6113,0 39.8485,-10.98682 41.7165,-11.98657 0.8967,-0.47992 5.4317,-1.60681 10.0778,-2.5042 4.646,-0.89739 10.7607,-2.07578 13.5881,-2.61865 l 5.1408,-0.98704 0.7102,-5.68419 c 0.963,-7.70763 5.4869,-19.57394 6.9172,-18.14373 0.2847,0.28474 -0.1408,2.70572 -0.9457,5.37997 -0.8048,2.67425 -1.4633,7.66697 -1.4633,11.09493 0,5.96869 0.1165,6.2613 2.75,6.90879 5.1068,1.25559 7.25,3.3207 7.25,6.98582 0,2.7299 -0.7898,4.07504 -4.0119,6.83303 l -4.0118,3.43402 2.7618,7.85931 c 2.5533,7.26584 3.0069,7.90894 6.0057,8.51636 1.7841,0.36136 3.9216,1.21953 4.75,1.90703 2.1283,1.76627 1.8683,6.27503 -0.5381,9.33429 -1.9505,2.47966 -1.968,2.74635 -0.3819,5.81355 2.506,4.84611 16.1343,17.95901 22.9262,22.05924 10.5731,6.38288 17.1771,8.08742 33.25,8.58198 12.0498,0.37077 14.25,0.21221 14.25,-1.0269 0,-0.80595 -0.9405,-7.49349 -2.0899,-14.8612 -3.5856,-22.98199 -2.556,-39.82603 3.5274,-57.71208 8.1638,-24.00248 25.6426,-42.44817 47.0625,-49.66593 7.2572,-2.44543 19.6434,-3.44641 30.2449,-2.44421 13.194,1.24728 35.6911,9.82374 32.9525,12.56232 -0.376,0.37595 -4.6242,-0.49518 -9.4405,-1.93585 -13.2301,-3.95742 -16.0242,-4.53991 -25.2569,-5.26531 -19.3635,-1.52137 -34.9424,4.11815 -47.9653,17.36335 -9.7213,9.88723 -17.1796,23.79662 -19.5581,36.47499 l -0.6967,3.71349 5.8012,-3.49331 c 3.1907,-1.92131 6.2098,-3.4933 6.7092,-3.4933 0.4994,0 5.0258,-2.41857 10.0588,-5.37461 19.7738,-11.61381 33.4141,-17.39491 51.1509,-21.67906 10.8625,-2.62373 18.3026,-2.46286 27.9044,0.60337 8.8769,2.83472 22.916,4.14049 32.134,2.98877 5.4731,-0.68382 6.3009,-1.14345 11.1521,-6.19232 4.4674,-4.64948 5.5273,-5.29998 7.1876,-4.41137 2.7111,1.45091 3.0725,3.04687 1.5432,6.81483 -3.3745,8.31424 -9.0206,12.47908 -18.6289,13.74164 l -4.7077,0.61859 1.6263,3.4104 c 2.4731,5.1861 0.4901,10.62215 -6.2853,17.22976 -8.203,7.99994 -11.3622,6.58514 -7.5486,-3.38047 1.1676,-3.05112 2.1246,-6.74496 2.1266,-8.20851 0,-1.46356 0.8955,-4.12352 1.9853,-5.91102 l 1.9816,-3.25 -5.7353,-0.0208 c -5.7096,-0.0208 -12.1608,-1.20357 -23.9008,-4.38218 -5.8946,-1.59599 -6.6025,-1.58024 -16.1162,0.35854 -5.473,1.11532 -13.4659,3.26909 -17.762,4.78616 -6.5298,2.30584 -7.8372,3.13393 -7.9695,5.04801 -0.087,1.25932 -1.7446,3.95932 -3.6833,6 -4.5095,4.74667 -11.8035,14.14339 -11.8035,15.20624 0,1.58253 14.2014,14.53195 18.3243,16.70888 l 4.1757,2.20482 -3.9167,0.0452 c -2.1541,0.0249 -3.6737,0.28811 -3.3768,0.58501 0.8485,0.84852 34.5484,2.21171 41.9761,1.69797 6.64,-0.45925 6.6766,-0.47802 5.7377,-2.94745 -1.0061,-2.64626 0.3577,-9.72608 2.0784,-10.78954 0.5194,-0.321 1.8473,-2.6249 2.9509,-5.11977 3.4819,-7.87146 6.636,-4.80963 6.9321,6.72942 0.086,3.36311 -0.5349,5.573 -2.2961,8.16821 l -2.4143,3.55775 11.8125,0.3318 c 9.917,0.27855 12.1498,0.63747 13.9144,2.23678 2.3292,2.11113 2.7878,6.033 0.8518,7.28599 -0.6875,0.44496 -6.2,0.81041 -12.25,0.8121 -6.05,0.002 -19.325,0.40025 -29.5,0.88569 -33.2995,1.58867 -62.0678,-2.80767 -92.8851,-14.19463 -1.6706,-0.6173 -1.1551,5.01749 2.1094,23.05586 1.5086,8.33551 2.5299,11.75 3.5146,11.75 0.7635,0 6.8303,-1.85209 13.4819,-4.11575 14.0469,-4.78045 26.3076,-5.97412 40.7836,-3.97059 31.8266,4.40492 38.7844,5.214 49.4956,5.75555 11.0249,0.5574 12.4285,0.42216 17.2731,-1.66433 7.1182,-3.0657 10.2269,-6.89014 10.2269,-12.58161 0,-6.20624 1.6327,-5.5186 2.4512,1.03238 1.2503,10.00711 -5.2908,19.09574 -16.8579,23.42355 -7.4979,2.80534 -21.6141,2.82558 -43.0933,0.0618 -37.2712,-4.7958 -40.7003,-4.66573 -59.9793,2.27508 l -11.9794,4.31279 0.4794,4.48557 c 0.7061,6.60811 0.1725,22.47223 -1.0256,30.48557 -1.7136,11.46199 -4.6336,18.88157 -9.6084,24.41478 l -4.4687,4.97026 2.983,5.30748 c 1.6406,2.91911 3.292,7.66998 3.6698,10.55748 0.629,4.80739 0.9078,5.2537 3.308,5.29389 1.4417,0.0241 4.4212,0.72872 6.6212,1.56573 7.727,2.93978 7.1327,3.37646 7.8696,-5.78227 0.3685,-4.58004 1.5531,-11.47735 2.6324,-15.32735 1.0793,-3.85 2.4516,-8.96423 3.0497,-11.36495 2.0649,-8.28938 8.6316,-11.41868 15.9835,-7.61686 4.6955,2.42816 5.349,10.59031 0.9594,11.98352 -1.7158,0.54459 -1.8012,0.83456 -0.5994,2.03638 0.7708,0.77075 1.7074,4.03808 2.0815,7.26073 0.593,5.10997 0.2874,6.87242 -2.3895,13.78027 -1.6882,4.3565 -3.9668,9.38341 -5.0636,11.17091 -2.311,3.76627 -4.5777,4.39167 -3.6245,1 0.3478,-1.2375 0.8947,-6.75 1.2152,-12.25 0.3437,-5.89699 1.363,-12.16947 2.4843,-15.28751 2.3541,-6.54641 2.3595,-6.41947 -0.2549,-6.03204 -1.7764,0.26325 -2.4482,1.55295 -3.8125,7.31955 -0.9109,3.85 -3.3563,10.74679 -5.4342,15.32621 -2.0778,4.57941 -3.6247,8.42313 -3.4375,8.54159 0.1873,0.11847 2.3655,1.49048 4.8405,3.04892 2.475,1.55844 5.625,3.84684 7,5.08534 2.2215,2.00094 3.9483,2.32601 15.5,2.91784 37.2008,1.90593 64.4285,7.08969 99.9742,19.0336 75.4737,25.3604 130.6735,63.589422 164.3962,113.853682 14.3392,21.3726999 29.3212,50.30611 37.1199,71.68638 10.7041,29.34514 20.0112,79.571438 20.0085,107.976538 0,21.1733 -4.5228,52.6272 -10.5536,73.429 -8.2782,28.5536 -29.4019,68.5938 -49.9924,94.7614 -7.5081,9.5416 -26.6701,28.5787 -37.4528,37.2086 -19.6603,15.7349 -44.1423,29.9939 -68.9279,40.1454 -37.7882,15.477 -74.0559,25.4108 -105.5721,28.9163 -28.7816,3.2013 -74.0485,4.3531 -97,2.468 z m -168.5,-559.66907 c 38.2453,-11.74747 52.3942,-15.29593 82.3886,-20.66266 l 19.8886,-3.55855 4.8639,-4.86388 c 6.0524,-6.05243 17.7199,-12.12739 29.0299,-15.1152 l 8.6066,-2.27361 -2.5372,-5.62791 c -1.3955,-3.09536 -2.5856,-5.70556 -2.6447,-5.80045 -0.059,-0.0949 -3.0298,0.55886 -6.6016,1.45278 -8.9604,2.24256 -34.6516,2.15295 -49.9941,-0.17437 -25.0994,-3.80737 -49.1486,-11.1857 -69.2245,-21.23821 l -6.7245,-3.36712 -6.7755,7.95904 c -10.9613,12.87603 -21.8657,33.89714 -24.8238,47.85451 -1.4817,6.99154 -1.8945,21.67631 -0.8279,29.45773 l 0.6238,4.55098 4.1262,-1.76247 c 2.2694,-0.96935 11.5512,-4.04313 20.6262,-6.83061 z m 138.1695,-28.71094 c 8.0683,-0.81221 23.485,-1.78201 34.2593,-2.15512 10.7744,-0.3731 19.4731,-0.79112 19.3305,-0.92892 -0.1426,-0.1378 -6.3079,-1.24801 -13.7006,-2.46714 -16.794,-2.76948 -28.5601,-2.36496 -41.2959,1.41976 -9.0313,2.68385 -16.0124,5.39001 -14.2628,5.52883 0.55,0.0436 7.6013,-0.58519 15.6695,-1.39741 z m 22.6638,-20.41129 c -1.1308,-3.0277 -7.4302,-15.0697 -7.8922,-15.08681 -0.3073,-0.0114 -1.3664,0.5698 -2.3534,1.29151 -1.6886,1.23477 -1.6999,1.59092 -0.1911,6.03495 0.8819,2.59751 1.6034,5.60702 1.6034,6.6878 0,1.66758 0.6938,1.96505 4.5833,1.96505 2.5209,0 4.4334,-0.40163 4.25,-0.8925 z m -36.6612,-15.62144 c -0.3274,-4.51741 2.3538,-9.34484 7.1616,-12.89411 2.3157,-1.7095 4.1045,-2.05653 9.7841,-1.89819 4.0034,0.11161 8.3139,0.87431 10.1663,1.79883 3.0626,1.52859 3.2966,1.50549 4.9094,-0.48475 3.6977,-4.56306 5.8772,-13.09546 6.8743,-26.91094 0.5397,-7.4783 0.6327,-16.23372 0.2067,-19.45649 l -0.7745,-5.85959 -15.5,-0.24849 c -17.769,-0.28487 -23.4333,-1.48331 -35.369,-7.48334 l -7.869,-3.9557 -12.4634,5.51532 c -21.5014,9.51486 -40.273,20.4837 -59.9196,35.0131 -10.5162,7.77707 -19.379,15.29577 -19.379,16.43999 0,2.65062 28.3249,13.47772 48,18.34781 19.3555,4.791 32.5634,6.4427 49.9815,6.25038 l 14.4815,-0.15989 -0.2909,-4.01394 z m -116.7247,-32.7814 c 7.4725,-6.37587 23.6513,-17.91307 35.5834,-25.37475 14.5006,-9.06783 27.1517,-14.08626 48.6281,-19.28965 l 9.1589,-2.21906 -7.3533,-6.98492 c -4.0443,-3.84171 -9.4531,-10.05801 -12.0194,-13.814 l -4.6661,-6.82909 -8.6395,4.00594 c -4.7517,2.20327 -13.75,5.3098 -19.9962,6.90341 -9.7347,2.48363 -13.2602,2.89746 -24.6849,2.89746 -13.4684,0 -18.9629,-0.98258 -18.208,-3.25615 0.2272,-0.68412 1.7263,-1.62579 3.3313,-2.09261 1.6051,-0.46682 8.0933,-3.47055 14.4183,-6.67495 11.2422,-5.69558 25.4596,-11.44294 39.5,-15.96787 3.85,-1.24077 7.3468,-2.56952 7.7706,-2.95279 0.4238,-0.38326 0.2512,-4.18932 -0.3837,-8.4579 -0.9526,-6.40454 -1.4368,-7.6708 -2.7706,-7.24463 -0.889,0.28404 -5.4413,1.86751 -10.1163,3.51882 -11.5582,4.08259 -26.028,5.69612 -37.7033,4.2043 -23.6679,-3.02418 -26.7978,-3.86777 -25.8499,-6.9674 0.2706,-0.88485 -0.3401,-2.69612 -1.3571,-4.02504 l -1.8491,-2.41622 -1.9985,4.41622 c -1.0993,2.42892 -4.3151,7.67872 -7.1464,11.66622 -3.911,5.50811 -5.7165,7.25 -7.5148,7.25 -3.457,0 -3.6859,-1.85563 -1.4164,-11.48285 1.1211,-4.75613 1.8125,-8.87344 1.5364,-9.14956 -0.6517,-0.65174 -9.5848,3.87729 -12.3816,6.27741 -2.03,1.74211 -2.0962,2.24106 -1.0874,8.19881 1.6129,9.52506 -0.5145,15.29813 -8.9209,24.20939 -8.5208,9.03255 -12.8614,9.36293 -8.7128,0.66316 1.3169,-2.76155 1.4489,-4.88767 0.75,-12.07863 l -0.8482,-8.72714 -7.7684,5.76584 c -6.5964,4.89597 -7.4726,5.87522 -5.8083,6.49091 3.2425,1.19946 4.7685,4.86029 6.0231,14.44835 1.2729,9.72866 0.3954,14.12528 -3.7345,18.71251 -1.6356,1.81664 -1.5587,2.01885 1.7262,4.5366 1.891,1.44936 11.341,8.85697 21,16.46135 16.4456,12.94728 43.1812,31.67385 45.2203,31.67385 0.501,0 4.231,-2.8329 8.289,-6.29534 z m -19.9474,-84.70466 c 1.1,-0.47269 3.4882,-0.89106 5.3072,-0.92971 1.8189,-0.0387 5.1939,-0.48535 7.5,-0.99264 2.306,-0.50729 7.5678,-1.46091 11.6928,-2.11915 4.125,-0.65824 11.325,-2.01385 16,-3.01247 10.2026,-2.17938 25,-3.46282 25,-2.16838 0,1.99226 -19.4606,8.09555 -29.2106,9.1611 -11.6627,1.2746 -39.2212,1.32111 -36.2894,0.0612 z m -66.7649,11.64288 c -0.1947,-1.53826 -1.3512,-0.96578 -6.7351,3.33416 -3.575,2.8552 -6.6275,5.53594 -6.7834,5.95718 -0.1558,0.42125 2.3192,2.91063 5.5,5.53195 l 5.7834,4.76605 1.2351,-8.86611 c 0.6793,-4.87636 1.1293,-9.70182 1,-10.72323 z m 293.6059,-13.06449 c -5.751,-2.6777 -16.341,-12.39767 -16.341,-14.99849 0,-2.73706 2.7471,-7.25483 8.6234,-14.18175 l 5.5275,-6.51576 -4.3255,2.20544 c -2.379,1.21299 -6.1254,3.37022 -8.3254,4.79384 -2.2,1.42362 -10.3,5.77424 -18,9.66805 -12.3093,6.22468 -14.0382,7.40393 -14.3164,9.76496 -0.2716,2.30469 0.051,2.68532 2.2765,2.68532 1.4261,0 6.0685,0.89042 10.3164,1.97872 9.7139,2.48864 32.7441,6.83453 36.7235,6.92987 2.6865,0.0644 2.4609,-0.17916 -2.159,-2.3302 z m -550.341,739.52981 c 0,-2.0056 -1.3379,-4.3808 -4.3654,-7.75 -6.4545,-7.1831 -10.6346,-14.2563 -10.6346,-17.995 0,-1.7848 0.4689,-3.5349 1.0419,-3.8891 1.0986,-0.679 -25.9362,-19.4839 -39.5419,-27.5047 -9.4467,-5.569 -27.8151,-14.9694 -29.2501,-14.9694 -0.5527,0 -1.5179,-0.618 -2.1447,-1.3733 -1.2888,-1.5529 -12.6012,-4.0562 -14.1116,-3.1227 -0.5418,0.3348 -1.5168,-0.5582 -2.1667,-1.9846 -0.9718,-2.1328 -0.9008,-2.874 0.3995,-4.1744 1.4415,-1.4415 3.0688,-1.3985 18.4274,0.4873 9.2654,1.1376 21.5712,2.5635 27.3462,3.1686 5.775,0.6052 16.8,2.0422 24.5,3.1933 17.057,2.5501 55.9527,3.0686 71.8389,0.9576 5.4114,-0.719 10.0478,-1.0984 10.3031,-0.8431 0.6127,0.6126 -10.0631,3.8062 -26.1259,7.8154 -10.9533,2.7338 -12.5359,3.3604 -10.1193,4.0067 4.3986,1.1764 7.5129,4.7506 9.202,10.5612 3.1269,10.756 0.082,14.4962 -5.6848,6.9837 -2.3513,-3.0628 -5.1504,-5.1919 -9.1497,-6.9594 -7.1453,-3.158 -8.1172,-5.1483 -4.1818,-8.5626 2.0589,-1.7861 2.3289,-2.3091 0.9175,-1.7769 -5.5926,2.1089 -31.4975,1.5838 -50,-1.0135 -3.9553,-0.5552 -3.9219,-0.5149 2.9868,3.6112 10.8916,6.5047 17.7086,12.5941 28.0158,25.0255 2.0521,2.475 4.9802,4.8379 6.507,5.2508 1.5267,0.4129 5.0735,2.8166 7.8818,5.3415 6.0087,5.4023 8.8035,12.498 7.1683,18.1994 -2.4725,8.6212 -9.0597,13.9408 -9.0597,7.3165 z m -111.602,-20.8582 c -4.819,-9.2125 -11.0907,-21.475 -13.9372,-27.25 -6.53043,-13.249 -11.22763,-19.1587 -21.65953,-27.2505 -17.1339,-13.2905 -30.9534,-21.7146 -40.0574,-24.4182 -2.7177,-0.8071 -4.6829,-1.7256 -4.3673,-2.0413 0.9774,-0.9773 12.7401,-0.4603 18.0649,0.794 6.0174,1.4175 13.116,4.8712 25.718,12.5127 19.38443,11.7542 25.50803,18.2636 34.31163,36.4733 3.6264,7.5009 5.2708,12.7668 7.9454,25.4442 4.4779,21.2245 4.682,22.4858 3.6384,22.4858 -0.4923,0 -4.8378,-7.5375 -9.6569,-16.75 z m -699.88523,10.7707 c -0.3329,-0.5387 -0.1448,-1.8398 0.418,-2.8914 0.7016,-1.3108 0.6787,-4.6972 -0.072,-10.7706 -1.4441,-11.6738 -0.6193,-28.5483 1.5577,-31.8708 1.9759,-3.0156 6.4961,-3.3476 8.9319,-0.656 4.2753,4.7241 4.8542,28.6376 0.9056,37.4107 -3.3097,7.3539 -9.6782,12.1153 -11.7407,8.7781 z m 794.67353,-7.06 c -5.3658,-4.9519 -10.2447,-7.7728 -32.5,-18.7905 -34.0453,-16.8545 -50.6863,-23.8187 -50.6863,-21.2121 0,1.7806 4.6363,13.369 8.2183,20.5419 2.5993,5.205 3.6624,8.8591 4.1457,14.25 0.9448,10.5387 -0.9213,9.5041 -8.117,-4.5 -13.71,-26.6821 -14.8201,-38.2562 -3.6683,-38.2466 4.6597,0 28.0499,7.7821 45.2621,15.0513 12.6139,5.3272 19.8073,10.0217 30.4396,19.8654 5.9143,5.4756 14.1374,16.4207 13.5378,18.019 -0.175,0.4665 -3.1594,-1.7738 -6.6319,-4.9784 z m -778.88973,-45.8032 c -0.576,-0.3706 -1.253,-6.9854 -1.5513,-15.1575 -0.4547,-12.4573 -0.2034,-16.2112 1.7838,-26.6471 1.2723,-6.681 3.0318,-13.5369 3.9102,-15.2355 2.1484,-4.1545 6.2586,-5.2088 8.6746,-2.2251 2.607,3.2196 3.1313,9.1371 2.003,22.6077 -0.8685,10.3684 -1.5388,13.2917 -4.9296,21.5 -6.4719,15.6666 -7.2487,16.8571 -9.8907,15.1575 z m 854.25343,-14.0757 c 0.5225,-0.505 5.675,-2.9848 11.45,-5.5105 11.9295,-5.2176 17.0316,-8.3998 33.6904,-21.013 12.931,-9.7907 28.5406,-24.763 35.335,-33.8924 2.3881,-3.2088 7.7486,-12.4338 11.9123,-20.5 5.9925,-11.6092 8.0384,-14.7325 9.8163,-14.9855 2.0626,-0.2934 2.246,0.076 2.246,4.5201 0,19.3179 -18.0416,49.6692 -40.7829,68.6089 -16.4941,13.7368 -28.7946,19.1793 -50.0015,22.1238 -13.1775,1.8297 -14.9759,1.915 -13.6656,0.6486 z m -197.13423,-21.2467 c -6.98,-4.9142 -18.4132,-10.4037 -30.9158,-14.8439 -6.6098,-2.3474 -11.1246,-3.2774 -17,-3.5018 -9.5305,-0.3638 -10.8448,-2.246 -3,-4.2959 6.8001,-1.777 17.7685,-0.8242 27.2837,2.3699 8.0797,2.7123 21.5134,9.3092 25.7616,12.6509 3.5663,2.8053 7.08703,11.7857 4.6205,11.7857 -0.4588,0 -3.4963,-1.8742 -6.75,-4.1649 z m 12.58423,1.1761 c 0,-1.3841 14.4837,-8.5163 23.3141,-11.4806 4.0497,-1.3594 14.2982,-3.8904 22.7745,-5.6244 14.2392,-2.913 17.0087,-3.1607 36.4114,-3.2573 18.9071,-0.094 21.7931,0.1188 28.9581,2.1356 5.0821,1.4306 8.9672,3.2068 10.75,4.9149 6.0475,5.7939 4.0839,6.2386 -27.2081,6.1623 -29.771,-0.072 -53.315,1.562 -74.5606,5.1765 -19.2916,3.282 -20.4394,3.3928 -20.4394,1.973 z m -89.50003,-8.1552 c -2.2,-0.4074 -5.6609,-0.7667 -7.691,-0.7984 -2.03,-0.032 -3.9729,-0.5137 -4.3174,-1.0712 -0.9238,-1.4948 3.5717,-8.987 6.839,-11.3978 5.6221,-4.1484 20.7748,-1.9973 23.6398,3.356 1.9125,3.5737 1.2308,6.9019 -1.7204,8.3996 -3.4557,1.7537 -11.5153,2.4811 -16.75,1.5118 z m 217.51663,-6.3124 c -4.3808,-11.5223 6.4677,-44.4341 21.0054,-63.7256 8.92,-11.8369 23.6109,-26.4471 31.5997,-31.4263 8.3575,-5.209 15.0045,-6.752 17.2793,-4.011 2.3997,2.8914 0.3261,5.9677 -8.3068,12.3236 -8.8807,6.5384 -22.5935,21.1174 -30.6762,32.614 -5.4582,7.7636 -22.8173,41.5638 -25.3476,49.3547 -2.2065,6.7943 -4.1683,8.5147 -5.5538,4.8706 z m -782.31543,-8.1757 c -1.2442,-1.2443 -0.7551,-6.1526 1.783,-17.8917 5.3462,-24.7273 9.3749,-35.6619 13.6376,-37.0149 6.1075,-1.9384 10.4856,3.5389 9.5701,11.9728 -1.3271,12.2268 -2.6718,15.5126 -12.0599,29.4689 -8.4378,12.5436 -11.0901,15.3055 -12.9308,13.4649 z m 1370.26483,-2.2404 c -6.6426,-1.3955 -8.1009,-4.1876 -3.0979,-5.9317 1.9016,-0.6629 4.0692,-2.9704 6.4326,-6.8478 3.2591,-5.3467 9.0425,-11.1149 15.6327,-15.5914 3.9695,-2.6964 9.6562,-2.3126 11.6883,0.7887 2.3168,3.5359 0.6608,8.6414 -5.4096,16.6781 -7.044,9.3257 -15.4588,12.9601 -25.2461,10.9041 z m -47.466,-3.5941 c -0.55,-0.2341 -2.9125,-0.9173 -5.25,-1.5181 -5.785,-1.4869 -5.9539,-4.4872 -0.3035,-5.3908 2.8819,-0.4608 5.5122,-2.0684 9.75,-5.959 7.2373,-6.6443 21.9273,-16.6655 24.4298,-16.6655 2.3991,0 5.8737,3.453 5.8737,5.8372 0,2.0045 -6.469,11.668 -11.4017,17.032 -1.7041,1.8531 -4.5019,3.9721 -6.2174,4.7088 -3.1635,1.3585 -15.0487,2.7353 -16.8809,1.9554 z m 83.5089,-2.8419 c -5.3833,-1.4282 -6.3915,-3.9123 -2.3781,-5.8594 1.5101,-0.7326 4.724,-4.2571 7.1419,-7.8321 6.1109,-9.0353 15.5083,-18.3214 21.274,-21.0219 4.6086,-2.1585 4.9825,-2.189 7.4035,-0.6027 5.139,3.3672 2.1255,12.9147 -7.8461,24.8589 -8.2034,9.8261 -15.9871,13.0062 -25.5952,10.4572 z m -132.1738,-3.3027 c -2.6665,-0.8051 -2.9405,-3.2127 -0.6124,-5.3816 1.1849,-1.104 2.6515,-2.0072 3.2591,-2.0072 0.6076,0 3.7106,-2.2033 6.8954,-4.8962 3.1849,-2.6929 7.8904,-5.6727 10.4568,-6.6217 2.5663,-0.949 7.4735,-3.08 10.9048,-4.7355 5.1231,-2.4718 6.509,-2.7858 7.75,-1.7559 2.1219,1.761 1.8954,3.8455 -1.0627,9.7817 -2.4628,4.9422 -8.9871,11.389 -14.4163,14.2451 -2.4818,1.3056 -19.9658,2.3401 -23.1747,1.3713 z m -38.3351,-9.3417 c -13.2393,-3.3019 -14.9587,-8.1916 -3.3087,-9.4093 4.8858,-0.5107 7.4803,-1.492 12.3733,-4.6799 16.5955,-10.8124 34.515,-6.3567 22.1362,5.5043 -5.0842,4.8715 -9.6515,7.2009 -16.7635,8.5497 -5.8874,1.1165 -10.0608,1.1267 -14.4373,0.035 z m 214.8829,-8.4918 c -0.4879,-1.2714 1.4171,-3.7125 7.3253,-9.3868 5.7391,-5.5119 9.0483,-9.7101 11.7671,-14.9281 6.2066,-11.9121 12.6262,-15.9546 17.3504,-10.9259 6.9382,7.3854 -5.5808,28.0828 -20.3222,33.5983 -8.5087,3.1835 -15.2651,3.8719 -16.1206,1.6425 z m -263.851,-7.8663 c -2.6309,-4.0152 -0.6272,-6.2151 10.7099,-11.7592 5.5559,-2.717 10.2738,-5.1121 10.4842,-5.3224 0.2103,-0.2104 -2.9719,-1.1288 -7.0717,-2.0409 l -7.4542,-1.6584 -5.1482,5.4435 c -8.8441,9.3513 -21.8953,13.023 -31.3791,8.8279 -5.0273,-2.2238 -6.3556,-5.1795 -2.3278,-5.1795 1.2898,0 3.2008,-0.9456 4.2468,-2.1014 1.046,-1.1558 4.7157,-4.1676 8.155,-6.6929 3.4393,-2.5253 6.2532,-4.9059 6.2532,-5.2902 0,-0.3843 -1.2375,-0.9938 -2.75,-1.3546 -1.5125,-0.3607 -3.485,-0.8732 -4.3833,-1.1387 -1.0836,-0.3204 -2.3102,0.6643 -3.6443,2.9254 -1.4253,2.4157 -4.153,4.4899 -9.3666,7.1225 l -7.3558,3.7142 -10.3845,-0.668 c -11.9419,-0.7683 -15.1155,-1.6856 -15.1155,-4.3691 0,-2.4429 1.1879,-3.3056 8.5,-6.1733 3.3,-1.2941 8.7731,-3.7599 12.1625,-5.4795 l 6.1624,-3.1265 -9.9986,-3.2773 c -9.9956,-3.2763 -9.9993,-3.2767 -12.1625,-1.2968 -4.4538,4.0765 -10.7886,6.3732 -20.052,7.27 -12.8301,1.242 -15.2544,1.1507 -17.0466,-0.6415 -2.4676,-2.4676 -0.744,-4.1909 9.9667,-9.9643 l 9.8103,-5.2882 -3.5082,-1.4658 c -7.1573,-2.9905 -7.4646,-2.9727 -12.2891,0.7098 -2.5256,1.9279 -6.2689,3.9969 -8.3184,4.5979 -5.4546,1.5994 -17.9043,2.2683 -24.2265,1.3017 -4.8311,-0.7387 -5.5,-1.121 -5.5,-3.1439 0,-1.9536 1.365,-2.8756 9,-6.0786 16.1889,-6.7917 17.1175,-7.5092 11.1633,-8.6262 -2.5919,-0.4863 -4.1608,-0.067 -7.0283,1.8791 -8.6236,5.8522 -12.6427,7.1701 -21.135,6.9305 -19.3567,-0.546 -26.0096,-6.7875 -11.6192,-10.9006 5.3254,-1.5221 15.1172,-6.2982 15.1172,-7.3737 0,-1.2084 -10.4122,-6.2574 -10.759,-5.2171 -1.7448,5.2346 -11.5529,11.2171 -18.3902,11.2171 -2.3197,0 -6.8131,-0.7283 -9.9853,-1.6183 -10.0751,-2.827 -11.3645,-7.2645 -2.8458,-9.7943 2.6453,-0.7856 6.536,-2.347 8.646,-3.4697 2.11,-1.1227 5.0922,-2.2967 6.6272,-2.6088 1.535,-0.3122 2.5644,-0.934 2.2875,-1.382 -0.7872,-1.2738 9.5349,1.672 11.3241,3.2318 0.8786,0.766 5.443,2.7941 10.1431,4.5071 8.1294,2.9627 8.8264,3.0555 14.3132,1.9046 7.0453,-1.4778 10.5667,-0.013 12.0026,4.9942 0.7886,2.7496 1.6892,3.4644 6.1284,4.8637 3.9308,1.2391 5.9143,1.391 8.1071,0.621 2.8039,-0.9845 2.7208,-1.0452 -2.4321,-1.7745 -5.4935,-0.7775 -7.2932,-2.4624 -5.5618,-5.2072 1.1653,-1.8473 9.0143,-5.0624 27.397,-11.2222 7.975,-2.6723 19,-6.6394 24.5,-8.8159 5.5,-2.1765 12.475,-4.7647 15.5,-5.7515 3.025,-0.9868 7.2057,-2.9199 9.2904,-4.2957 2.9324,-1.9353 4.06,-2.2319 4.9815,-1.3104 3.3305,3.3305 -9.3332,17.1165 -21.1993,23.0781 -6.0808,3.055 -31.1594,11.4678 -37.5726,12.604 -5.2295,0.9265 -5.9285,1.4 -4.1221,2.792 0.8237,0.6347 1.6382,2.4413 1.8099,4.0147 0.2827,2.5903 1.0632,3.1338 8.2564,5.75 4.3693,1.5891 9.6069,2.8893 11.6392,2.8893 2.2119,0 4.6426,0.7912 6.0558,1.9712 2.1395,1.7864 10.4045,4.6425 36.1919,12.5068 4.8571,1.4812 8.9966,2.5276 9.1989,2.3253 0.2024,-0.2023 -1.2274,-2.3784 -3.1771,-4.8356 -4.9874,-6.2854 -5.7332,-7.9941 -9.2391,-21.1675 -3.9544,-14.8583 -4.1238,-22.8002 -0.4862,-22.8002 4.2322,0 15.7375,24.0066 17.9722,37.5 0.8198,4.95 1.2495,9.9611 0.9549,11.1359 -0.6111,2.4373 1.4436,3.3278 7.7305,3.3504 2.0818,0.01 4.8313,0.6992 6.1099,1.5369 2.5723,1.6855 21.4323,6.168 31.593,7.5088 3.5815,0.4727 13.0369,1.7488 21.0119,2.8358 19.4876,2.6562 40.466,4.0808 70.5,4.7873 46.9889,1.1054 73.8668,-3.0382 99,-15.2622 11.4878,-5.5873 20.6907,-12.4404 32,-23.8295 10.2096,-10.2815 16.0794,-20.2207 21.5024,-36.4097 4.5402,-13.5536 6.0647,-22.9655 6.0993,-37.6537 0.088,-37.2647 -14.4901,-70.679498 -43.6017,-99.942698 -21.4448,-21.55646 -45.5338,-35.7317501 -80,-47.0763501 -22.2952,-7.33851 -36.9572,-9.4708499 -65,-9.4532199 -27.6737,0.0174 -43.1861,2.6221799 -86.9857,14.6063499 -13.1922,3.60955 -30.647,8.0921001 -38.7885,9.9612401 -8.1416,1.86913 -19.848,4.73621 -26.0143,6.37128 -16.358,4.33752 -27.3907,6.02939 -43.7115,6.70317 -36.4731,1.50575 -66.7799,-5.98883 -91.4001,-22.6023501 -14.1011,-9.51531 -29.1156,-22.6773199 -38.1899,-33.4779999 l -8.8968,-10.58942 -5.0066,-0.0174 c -7.0691,-0.0245 -17.644,-2.44416 -23.4691,-5.36994 -7.9345,-3.98525 -21.9566,-13.65816 -28.2957,-19.51934 -7.8477,-7.25607 -19.1251,-22.4137 -25.5671,-34.36411 -5.1137,-9.486252 -5.6139,-11.729212 -2.6154,-11.729212 2.7412,0 19.3709,14.172882 26.3391,22.447742 8.359,9.92644 14.5967,15.36369 26.4732,23.07589 10.1596,6.59727 15.6629,8.89783 27.6284,11.54944 14.9325,3.30912 25.0662,2.20859 30.1923,-3.27893 3.7904,-4.05764 3.6632,-1.27513 -0.1846,4.03654 -3.7942,5.2378 -8.9055,8.56871 -16.4628,10.72855 l -5.9551,1.70194 2.9551,2.40641 c 11.6486,9.48571 32.4152,24.24624 44.3473,31.5212299 17.1039,10.42829 47.3994,21.1707201 67.6078,23.9729601 11.4883,1.59304 35.0776,1.57836 43.5,-0.0271 15.079,-2.87425 62.628,-14.3713001 99.7507,-24.1190801 38.071,-9.9967899 76.6778,-13.4366999 106.6729,-9.5046899 31.0057,4.06449 74.9058,20.0995199 98.5764,36.00619 57.6815,38.76204 84.0194,106.465178 64.5448,165.915978 -6.4519,19.696 -14.276,32.3522 -27.9732,45.2491 -19.6934,18.5427 -40.1324,27.6902 -73.8029,33.0305 -9.4596,1.5004 -17.6905,1.7857 -51.2687,1.7772 -41.4043,-0.01 -51.2337,-0.6353 -85.2882,-5.4218 l -13.2881,-1.8677 -5.205,5.5035 c -7.7322,8.1757 -11.0703,9.5583 -24.3658,10.0922 -11.0672,0.4445 -11.159,0.4294 -12.821,-2.1071 z m 310.2913,-7.4016 c -1.4723,-0.2234 -3.2148,-1.0544 -3.8724,-1.8467 -0.983,-1.1845 -0.5682,-1.7026 2.3344,-2.9154 4.3648,-1.8237 7.0562,-5.1566 9.576,-11.8583 2.7465,-7.3048 8.7543,-17.763 11.7287,-20.417 3.1575,-2.8174 5.8038,-2.8563 8.5346,-0.1255 2.5414,2.5414 2.2429,7.377 -1.1229,18.1887 -4.0338,12.9574 -15.2455,20.7847 -27.1784,18.9742 z m -1471.21343,-6.1098 c -0.3513,-0.5683 1.6168,-5.8512 4.3734,-11.7398 2.7567,-5.8885 5.9006,-13.6835 6.9864,-17.3221 4.9936,-16.7327 9.1518,-24.1157 13.5823,-24.1157 2.5981,0 4.035,1.5059 4.9624,5.2008 0.9151,3.6463 -4.526,20.9737 -8.4185,26.8091 -4.0502,6.0717 -20.6864,22.4615 -21.486,21.1677 z m 1269.73303,-6.7439 c -2.0424,-2.0424 -2.4418,-3.1889 -1.9563,-5.6162 0.5794,-2.8971 0.4722,-3.0216 -2.1383,-2.4847 -1.5115,0.311 -8.8232,1.3432 -16.2482,2.2939 -13.2934,1.7021 -13.6948,1.6957 -26.2309,-0.4157 -17.7671,-2.9926 -35.6226,-7.0498 -39.7639,-9.0354 -4.4496,-2.1334 -5.9873,-6.0277 -3.7365,-9.4629 1.7633,-2.6912 26.5203,-15.3176 35.7313,-18.2234 5.9065,-1.8634 8.5462,-3.4893 5.6648,-3.4893 -2.6167,0 -6.7316,-3.0454 -7.7561,-5.7402 -2.2223,-5.8451 4.2687,-10.2536 15.0913,-10.2495 10.2854,0 15.0048,3.168 16.4837,11.0512 1.2547,6.6878 -3.0019,11.6338 -6.4434,7.4871 -0.8213,-0.9897 -2.8729,-1.3839 -6.4484,-1.2392 -4.6643,0.1888 -6.0645,0.8302 -12.6679,5.8033 -4.0832,3.075 -11.3703,7.9739 -16.1936,10.8862 -4.8232,2.9124 -8.5595,5.5053 -8.3029,5.7619 0.8197,0.8198 39.4363,7.2475 57.9395,9.644 17.6153,2.2816 17.9359,2.288 22.7607,0.4547 8.0746,-3.0681 14.7554,-2.0869 18.9836,2.7881 3.5849,4.1333 2.7218,9.3524 -1.5467,9.3524 -1.2848,0 -3.6249,0.6722 -5.2003,1.4938 -1.6506,0.8609 -5.532,1.4965 -9.1598,1.5 -5.4296,0.01 -6.6483,-0.3467 -8.8617,-2.5601 z m 234.3381,-4.0862 c -0.3589,-0.3588 1.9852,-5.6463 5.2091,-11.75 3.8872,-7.3595 6.0695,-12.7817 6.4788,-16.0975 0.9136,-7.4004 8.3468,-23.3905 11.2072,-24.1084 6.5442,-1.6425 8.4301,2.343 7.1954,15.2059 -1.224,12.7519 -3.6732,16.6943 -18.191,29.2809 -9.1382,7.9227 -10.556,8.8126 -11.8995,7.4691 z m -1462.38623,-31.022 c -0.9355,-2.4377 13.0932,-29.7061 18.0484,-35.0819 2.223,-2.4117 5.989,-5.526 8.3687,-6.9206 5.5736,-3.2664 7.2882,-2.1347 7.2882,4.8103 0,6.2036 -3.1914,13.1149 -8.4811,18.3667 -7.4757,7.4221 -22.494,20.5 -23.5418,20.5 -0.5719,0 -1.329,-0.7535 -1.6824,-1.6745 z m 1137.70953,-1.8205 c -1.6506,-1.9888 0.8104,-5.8406 5.1731,-8.0967 3.1911,-1.6502 16.0027,-4.3091 21.0727,-4.3734 4.4987,-0.057 3.2445,2.5199 -3.1028,6.3757 -12.1155,7.3597 -20.3034,9.5159 -23.143,6.0944 z m -15.7547,-0.755 c -1.04,-1.306 -5.8047,-19.0437 -9.7715,-36.3769 -2.6236,-11.4638 -6.8985,-22.3911 -12.13,-31.0058 -1.9597,-3.227 -3.6272,-7.2173 -3.7055,-8.8673 -0.1224,-2.5771 0.2482,-3.0449 2.6287,-3.3185 11.2372,-1.2914 26.9249,27.158 29.8617,54.1537 1.6667,15.3208 -0.1077,26.6648 -4.171,26.6648 -0.9443,0 -2.1649,-0.5625 -2.7124,-1.25 z m -214.9812,-18.5952 c -9.2224,-1.854 -12.087,-3.7566 -10.4004,-6.9079 0.7118,-1.33 3.2503,-2.5358 7.6823,-3.6491 3.6406,-0.9145 7.652,-2.3394 8.9142,-3.1664 2.8887,-1.8928 15.1257,-5.4314 18.7824,-5.4314 3.2894,0 6.7532,3.1569 6.7532,6.1548 0,4.55 -14.8097,14.9787 -20.9463,14.75 -1.4046,-0.052 -6.2579,-0.8398 -10.7854,-1.75 z m 589.2259,-4.1642 c -0.3432,-0.5552 0.4928,-3.8177 1.8576,-7.25 1.3648,-3.4323 2.9684,-8.9406 3.5636,-12.2406 1.0269,-5.6936 7.5627,-19.9852 10.8613,-23.75 2.326,-2.6548 7.0281,-2.2725 8.3737,0.6808 0.8736,1.9172 0.6339,4.4002 -1.1339,11.75 -2.6957,11.2072 -7.7707,20.4448 -14.8912,27.1052 -4.9632,4.6426 -7.404,5.6901 -8.6311,3.7046 z m -1457.75113,-8.5809 c -1.5291,-1.5291 -0.6264,-3.7346 3.3795,-8.2563 2.2674,-2.5593 5.4305,-7.3534 7.029,-10.6534 3.385,-6.9876 12.7802,-17.5 15.6404,-17.5 4.8639,0 5.302,5.5283 1.2795,16.1488 -3.5433,9.3553 -14.1361,18.5141 -23.6024,20.4074 -1.6407,0.3281 -3.3174,0.2622 -3.726,-0.1465 z m 837.25693,-2.6162 c -5.2707,-1.1623 -7,-2.359 -7,-4.8441 0,-1.2741 1.6302,-2.4156 5.5375,-3.8776 3.0456,-1.1395 5.7846,-2.0718 6.0865,-2.0718 0.302,0 2.4226,-1.3238 4.7125,-2.9418 7.8178,-5.5238 21.4628,-7.4148 24.7678,-3.4325 1.0885,1.3116 0.9807,2.1736 -0.6495,5.1915 -2.3311,4.3154 -10.5637,10.8063 -15.4548,12.185 -4.286,1.2082 -11.9791,1.119 -18,-0.2087 z m 49.3264,-13.8379 c -9.0446,-1.7884 -13.2943,-5.7371 -11.1766,-10.385 2.302,-5.0524 32.38,-18.1638 59.7214,-26.0335 6.612,-1.9031 23.1833,-5.8036 36.8253,-8.6676 23.4368,-4.9204 25.63,-5.2091 39.8035,-5.2397 17.2375,-0.037 29.0312,1.5851 35.4901,4.8818 5.025,2.5648 9.4469,6.8665 10.4382,10.1542 0.8137,2.6987 -1.1395,4.0949 -2.7448,1.9621 -1.4976,-1.9897 -17.8436,-3.6259 -36.2351,-3.6271 -22.8299,0 -68.6836,9.4511 -106.4484,21.9438 -9.625,3.1839 -18.9625,6.1097 -20.75,6.5017 -1.7875,0.3919 -3.257,1.0144 -3.2655,1.3832 -0.01,0.3688 1.904,2.3446 4.25,4.3907 l 4.2655,3.7201 -3,-0.08 c -1.65,-0.044 -4.8781,-0.4511 -7.1736,-0.905 z m -851.73083,-1.8009 c -0.2873,-0.465 2.765,-4.6721 6.7829,-9.3493 4.018,-4.6772 9.4789,-11.6093 12.1355,-15.4047 11.0194,-15.7433 19.9608,-21.783 24.9146,-16.8293 7.2102,7.2102 -10.4001,26.3553 -36.1501,39.3008 -6.8901,3.4639 -6.943,3.4797 -7.6829,2.2825 z m 754.15443,-0.947 c -3.0526,-0.6181 -1.8964,-2.919 2.5,-4.9752 25.0988,-11.7391 28.009,-12.6053 34.3057,-10.2113 2.3638,0.8987 2.6122,1.4083 2.072,4.25 -0.7704,4.0526 -5.4854,8.1778 -10.9628,9.5913 -4.0938,1.0565 -24.4872,2.0392 -27.9149,1.3452 z m 671.6381,-28.4577 c 0.3534,-2.8875 1.0363,-10.425 1.5175,-16.75 1.0714,-14.0811 2.4817,-19.668698 5.8682,-23.249998 3.3362,-3.5282 4.4505,-3.4605 7.7586,0.4708 2.6361,3.1329 2.6976,3.4948 2.252,13.249998 -0.511,11.1851 -1.6755,14.2979 -9.4567,25.2792 -3.0035,4.2386 -5.0971,6.25 -6.5055,6.25 -1.9201,0 -2.0282,-0.3958 -1.4341,-5.25 z m -1379.13813,2.618 c -2.0264,-0.8667 -1.4367,-3.1996 1.2544,-4.9628 1.3774,-0.9025 5.2423,-5.0754 8.5887,-9.2731 6.9882,-8.7659 23.2825,-21.1321 27.8447,-21.1321 3.202,0 5.0622,1.6531 5.0622,4.4986 0,3.5048 -14.2782,21.9941 -19.2223,24.8915 -7.5148,4.404 -19.8686,7.5428 -23.5277,5.9779 z m 44.75,-20.9517 c 0,-0.8711 2.648,-4.8086 5.8845,-8.75 3.2365,-3.9415 6.81,-9.008898 7.9411,-11.260998 2.3296,-4.6383 6.9599,-9.0232 13.6975,-12.9717 3.8715,-2.2688 4.9898,-2.5209 7.0398,-1.5869 3.2945,1.5011 3.0909,3.6996 -1.1749,12.6867 -4.1477,8.738198 -7.4225,11.596198 -21.6984,18.936498 -9.4685,4.8684 -11.6896,5.4282 -11.6896,2.9464 z M 1038.021,99.829032 c -2.2,-0.7926 -4.1125,-1.4479 -4.25,-1.4561 -0.1375,-0.01 -0.25,-0.6901 -0.25,-1.5151 0,-1.0698 1.0883,-1.5 3.7942,-1.5 2.587,0 5.5302,-1.0869 9.25,-3.4157 13.3263,-8.3434 22.8441,-13.5843 24.6695,-13.5843 2.5648,0 5.2863,3.0453 5.2863,5.9154 0,2.4261 -8.9514,11.8643 -14.4085,15.192 -3.8527,2.349298 -17.9877,2.562698 -24.0915,0.3638 z m -402.83333,-4.1379 c -1.7474,-1.7473 -0.2233,-4.4884 4.3703,-7.8604 2.7944,-2.0513 5.9515,-5.4902 7.0911,-7.7239 1.1297,-2.2145 4.2417,-6.214 6.9154,-8.8877 4.1909,-4.1909 5.4116,-4.8613 8.8522,-4.8613 4.4393,0 7.1043,2.563 7.1043,6.8325 0,4.116 -6.0756,14.1891 -10.2072,16.9233 -6.2023,4.1045 -21.957,7.7467 -24.1261,5.5775 z m 360.3333,-6.6896 c 0,-1.0069 2.7397,-2.9979 7.25003,-5.2686 3.9875,-2.0075 8.8988,-5.0507 10.9139,-6.7626 5.163,-4.3859 12.2753,-8.0417 14.2048,-7.3013 2.3127,0.8875 2.0767,6.1373 -0.5168,11.4948 -3.0285,6.2561 -8.1372,8.3826 -21.6019,8.9922 -8.96913,0.406 -10.25003,0.2617 -10.25003,-1.1545 z m 904.09633,-4.9191 c -5.1949,-12.1191 -11.3613,-31.02662 -12.3651,-37.91413 -1.0258,-7.03764 -0.9617,-7.89828 0.7269,-9.76419 3.8794,-4.28667 9.5377,-1.79023 13.2983,5.86716 2.7126,5.52345 2.7436,5.81154 2.7436,25.50156 0,21.6877 -0.811,24.6911 -4.4037,16.3096 z m -1220.09633,-2.1096 c 0,-0.7617 1.2375,-2.1904 2.75,-3.1749 3.4833,-2.2671 4.6863,-3.7728 7.8757,-9.8574 3.0195,-5.7604 11.8327,-15.41873 15.2642,-16.72782 3.1194,-1.19004 6.1101,1.38585 6.1101,5.26259 0,5.09743 -4.0976,14.20243 -8.1422,18.09233 -5.8672,5.6426 -23.8578,10.4727 -23.8578,6.4052 z m 260.75,-4.1605 c -1.8698,-1.9642 -0.089,-3.4737 9.1701,-7.771 5.4561,-2.5324 11.433,-5.9327 13.2821,-7.5562 3.9466,-3.46515 12.393,-8.1273 14.7242,-8.1273 3.3414,0 6.0736,2.96881 6.0736,6.5995 0,4.7883 -7.2664,12.6115 -13.8218,14.8811 -5.0592,1.7516 -28.1645,3.3014 -29.4282,1.9739 z m -209.5,-5.1944 c -2.6151,-0.8928 -1.0238,-3.2397 5.5,-8.1115 3.7125,-2.7724 8.7125,-7.344 11.1111,-10.15919 9.5428,-11.20016 18.5219,-15.87927 21.1279,-11.00993 1.4991,2.80109 0.2935,6.64338 -4.1495,13.2239 -4.6014,6.81532 -8.6151,9.99322 -15.3395,12.14562 -7.4526,2.3855 -16.8313,4.3954 -18.25,3.9111 z m 119.868,-1.5421 c -1.905,-1.905 -1.3305,-2.6209 5.8118,-7.2412 3.8114,-2.4656 7.8622,-5.66822 9.0018,-7.11694 3.9974,-5.08195 13.1098,-11.35986 16.4887,-11.35986 7.3667,0 7.63,5.99505 0.6425,14.63077 -5.2844,6.53093 -8.5736,8.38403 -18.0628,10.17643 -9.8527,1.861 -12.7422,2.0506 -13.882,0.9108 z m 49.2046,-0.4142 c -5.6242,-1.0948 -5.0512,-5.5081 0.8689,-6.6921 1.7306,-0.3461 5.433,-2.3551 8.2276,-4.46443 7.4746,-5.64187 17.991,-11.14727 21.2934,-11.14727 3.778,0 5.2875,1.63954 5.2875,5.74284 0,2.59301 -1.0313,4.44537 -4.5976,8.25806 -6.6296,7.0875 -11.2254,9.0301 -20.9681,8.8629 -4.3639,-0.075 -8.9141,-0.3269 -10.1117,-0.56 z m -116.6863,-4.8104 c -0.9,-0.8999 -1.6363,-1.7858 -1.6363,-1.9685 0,-0.1827 4.0505,-4.44494 9.0011,-9.47156 12.5123,-12.70443 22.9309,-17.59095 28.7764,-13.49664 4.7703,3.34125 2.2443,9.39231 -7.2839,17.44868 -4.6982,3.97252 -7.0528,5.18072 -12.3967,6.36132 -12.441,2.7483 -14.6854,2.902 -16.4606,1.1267 z m 38.0304,0.8399 c -1.7032,-1.7032 -0.2871,-6.1113 3.8061,-11.84737 5.1832,-7.26362 12.5246,-14.06113 15.8788,-14.70231 5.3562,-1.02391 9.2988,2.97859 8.1384,8.26208 -1.6644,7.57756 -23.9111,22.1999 -27.8233,18.2876 z m 390.91653,-13.5833 c -1.1075,-5.47792 -2.0025,-15.90667 -2.0211,-23.54946 -0.023,-9.29168 0.7224,-10.48722 6.1879,-9.93218 1.7875,0.18152 3.25,0.0331 3.25,-0.32984 0,-0.36294 -2.2656,-5.4996 -5.0348,-11.4148001 -5.6385,-12.04468 -8.4842,-21.6512599 -9.4859,-32.0237199 -0.3718,-3.85 -1.1459,-7.57337 -1.7202,-8.27417 -1.5777,-1.92532 -0.085,-2.69528 2.7348,-1.41054 3.4879,1.58918 9.4347,11.29095 12.137,19.80067 3.3848,10.6587999 6.8635,33.36267 5.457,35.61492 -0.8609,1.37854 -0.762,2.33681 0.4286,4.15403 2.2405,3.41936 2.977,11.78091 1.5018,17.04981 -2.5392,9.06913 -12.1891,16.47818 -13.4351,10.31528 z m 649.1508,-16.5 c -5.0196,-6.93843 -11.3425,-18.16564 -12.7596,-22.65615 -1.5181,-4.8109001 -0.5696,-17.0365401 1.5758,-20.3108101 1.8674,-2.85007 6.4548,-3.04004 8.8734,-0.36746 2.5907,2.86267 5.5764,13.50675 5.5764,19.8798601 0,3.08949 0.7309,10.00428 1.6241,15.3662 2.3317,13.99562 0.9895,16.21561 -4.8901,8.08836 z m -664.4724,-24.5 c -3.8494,-7.8375001 -9.4206,-20.3080601 -12.3803,-27.71236 -6.424,-16.07078 -10.2964,-22.81584 -14.5009,-25.25765 -5.3784,-3.1236 -32.9075,-8.38263 -56.8804,-10.86617 -5.5,-0.56979 -11.575,-1.45599 -13.5,-1.96932 -4.9232,-1.31288 -9.187,-1.118 -11.3472,0.51862 -1.016,0.76973 -2.5119,1.14443 -3.3244,0.83266 -3.6065,-1.38394 3.2092,-12.76843 10.0414,-16.77232 4.9485,-2.90005 10.8046,-3.27816 17.8645,-1.15347 3.9991,1.20358 17.5326,1.08475 36.8982,-0.32398 0.8507,-0.0619 -13.2327,-32.789542 -16.9307,-39.344252 -1.6141,-2.86097 -3.2555,-6.66426 -3.6477,-8.45176 -0.6784,-3.09228 -0.5701,-3.25 2.2316,-3.25 6.7801,0 11.8497,7.49514 21.8887,32.361412 4.0276,9.97623 7.3235,19.10124 7.3243,20.27781 7e-4,1.17656 -0.7862,3.06364 -1.7487,4.19349 -1.5779,1.85223 -3.0779,2.08443 -15.25,2.36079 -7.425,0.16857 -14.8632,-0.0449 -16.5294,-0.4745 l -3.0294,-0.781 0.3753,3.93511 c 0.2735,2.86753 -0.1306,4.44094 -1.4892,5.79961 -1.8194,1.81933 -1.319,1.86404 20.6541,1.84589 33.8994,-0.028 35.2852,0.7506 48.0252,26.98139 12.246,25.21370994 14.8453,33.5087599 14.9625,47.75 0.057,6.917 -2.5242,4.12505 -9.7075,-10.5 z M 1828.021,3.9948019 c -12.9073,-6.11874 -20.5219,-16.0113499 -20.7791,-26.9954299 -0.1652,-7.05948 1.9862,-9.88197 7.1958,-9.44005 4.3957,0.37288 6.5948,3.42389 11.4648,15.90579 1.9335,4.95572 5.1395,11.2709599 7.1244,14.0338699 5.7884,8.05702 3.7814,10.66145 -5.0059,6.49582 z m -56.3958,-24.1159699 c -8.1993,-3.04445 -13.7731,-7.11153 -17.8542,-13.02791 -2.7556,-3.99474 -3.25,-5.59771 -3.25,-10.53718 0,-9.25687 2.5777,-13.20642 7.4091,-11.35242 2.5827,0.99108 8.3092,10.61326 10.178,17.10206 2.6077,9.05431 6.1029,15.17898 9.9613,17.45551 1.8984,1.12007 3.4516,2.21704 3.4516,2.43772 0,0.95763 -3.9603,0.12611 -9.8958,-2.07778 z m -571.8542,-18.18328 c -1.4622,-0.58999 -1.6779,-3.95526 -0.3078,-4.80201 0.5182,-0.32028 1.2532,-2.70934 1.6333,-5.30902 0.38,-2.59968 1.5322,-6.88373 2.5603,-9.52011 1.0281,-2.63638 3.4536,-10.28638 5.39,-17 6.2808,-21.77587 7.6889,-24.05962 10.9485,-17.75624 2.0402,3.94533 1.9151,10.17983 -0.4904,24.42969 -2.2573,13.37278 -4.6171,19.58805 -9.2851,24.45529 -2.7066,2.82209 -7.8739,6.35583 -8.8991,6.08573 -0.1649,-0.0434 -0.8622,-0.30592 -1.5497,-0.58333 z m 516.8717,-7.2911 c -13.6481,-5.70095 -17.9057,-8.65072 -21.3656,-14.80278 -5.0958,-9.06072 -3.3038,-16.24384 4.0525,-16.24384 2.8049,0 4.2376,0.80041 7.2252,4.03661 2.0496,2.22013 5.1167,6.64475 6.8157,9.83249 1.8079,3.39197 5.8331,8.35194 9.7048,11.9586 6.2852,5.85497 7.5256,8.38652 4.3628,8.9043 -0.7794,0.1276 -5.6373,-1.53082 -10.7954,-3.68538 z m -274.7458,-6.45207 c -7.9135,-3.68467 -14.1869,-13.17073 -14.32,-21.65342 -0.077,-4.87178 1.9022,-7.27446 5.9908,-7.27446 2.6767,0 4.0953,0.86257 7.2323,4.39746 2.1463,2.4186 5.6191,7.33685 7.7172,10.92945 4.0702,6.96904 7.8739,9.85485 15.7538,11.95228 2.3375,0.62217 4.25,1.51574 4.25,1.9857 0,1.55702 -3.0641,2.06855 -12.3318,2.05867 -7.5506,-0.008 -10.0723,-0.43072 -14.2923,-2.39568 z m -37.8971,-2.86593 c -13.1965,-7.15933 -15.6329,-10.00278 -18.5899,-21.69611 -1.7012,-6.72729 -1.8434,-8.64028 -0.8632,-11.61027 1.4779,-4.47809 4.9508,-6.30794 8.434,-4.44378 2.8001,1.49856 7.9357,10.82877 12.4848,22.68209 1.7225,4.48831 4.4766,9.85264 6.1201,11.92075 5.3334,6.71115 1.7351,8.20405 -7.5858,3.14732 z m 256.9909,-2.83957 c -3.2833,-2.30586 -7.4118,-5.54266 -9.1743,-7.19289 -4.3304,-4.05452 -8.2954,-14.20111 -8.2954,-21.22812 0,-4.88092 0.2806,-5.63879 2.4549,-6.62946 2.9257,-1.33301 7.2054,0.10601 10.385,3.49183 2.0249,2.15625 8.1601,15.48957 8.1601,17.73397 0,0.6457 1.6065,3.81863 3.5701,7.05095 6.4112,10.55404 2.9645,13.84219 -7.1004,6.77372 z m -155.3221,-0.91705 c -9.2788,-1.34957 -13.5834,-3.58419 -18.5683,-9.63929 -4.9987,-6.07194 -5.8277,-9.89292 -2.7506,-12.67772 1.0058,-0.91025 2.8398,-1.65499 4.0756,-1.65499 3.0894,0 15.4528,7.36983 17.4328,10.39177 0.9023,1.37706 5.8225,4.56864 11.1395,7.22583 5.2379,2.61765 9.5234,5.34954 9.5234,6.07088 0,1.48581 -11.5102,1.64231 -20.8524,0.28352 z m -325.1448,-2.722 c 0,-2.43271 -4.2611,-10.25 -5.5922,-10.25 -1.3617,0 -5.8686,-8.12929 -9.9791,-18 -6.8956,-16.558542 -12.4079,-26.679262 -18.4394,-33.854992 -4.2476,-5.05346 -5.8593,-7.67779 -5.1505,-8.38657 1.8621,-1.86213 16.5058,10.94542 24.2452,21.20513 l 2.5868,3.42919 0.6587,-9.94638 c 1.1787,-17.80068 9.2053,-45.95754 15.3487,-53.84287 3.7121,-4.76465 7.7765,-7.60351 10.886,-7.60351 1.8791,0 1.9491,-0.33073 -2.4894,11.758 -1.6676,4.54189 -4.4728,14.89189 -6.2338,23 -2.9665,13.65812 -3.2032,16.13894 -3.2202,33.742 -0.012,12.440842 0.5612,23.151592 1.6603,31.025962 1.9006,13.6166 1.1995,19.47404 -2.3309,19.47404 -1.1944,0 -1.9519,-0.67976 -1.9502,-1.75 z m 844.9972,-7.62835 c -29.1608,-11.73931 -44.099,-21.02994 -62.8698,-39.101072 -22.7584,-21.90997 -35.297,-41.70944 -48.4592,-76.52058 -8.5529,-22.62056 -14.2645,-46.12314 -25.6384,-105.5 -11.0234,-57.54729 -17.0556,-82.00983 -33.0153,-133.88722 -17.989,-58.47407 -29.0334,-80.61963 -51.329,-102.92204 -14.8602,-14.8648 -26.5162,-20.19074 -44.1883,-20.19074 -9.3343,0 -10.3627,0.20575 -15.4489,3.09065 -3.7088,2.10367 -6.7425,4.92135 -9.5,8.82334 l -4.0511,5.7327 0,9.73034 0,9.73034 6.2435,12.53824 c 6.2415,12.53411 18.1658,31.3873 34.6447,54.77563 9.5313,13.52785 14.1058,21.65544 12.6831,22.53472 -0.4999,0.30893 -3.737,-3.15478 -7.1935,-7.69713 -48.6732,-63.96334 -56.171,-76.6549 -56.2762,-95.25883 -0.055,-9.80775 2.8946,-17.04883 9.7311,-23.88531 9.6372,-9.6372 20.8764,-12.4072 37.5578,-9.25645 15.017,2.83637 27.9717,10.44795 40.8416,23.99663 22.2163,23.38793 33.0906,45.02766 50.0731,99.64513 16.2883,52.38475 26.0701,89.83151 35.6562,136.5 15.9199,77.50391 23.1041,102.62517 37.7491,132 8.1127,16.27218 24.2508,38.77341 38.2812,53.37507 18.915,19.685112 33.9484,29.757172 68.5083,45.899052 9.2853,4.33688 0.9369,1.86071 -14,-4.15247 z m -420.8174,2.47656 c -6.0282,-2.08202 -11.4149,-6.76784 -14.3668,-12.49763 -3.6465,-7.07808 -0.543,-18.60058 5.0099,-18.60058 3.171,0 7.5485,6.00429 10.5713,14.5 1.2701,3.56981 3.3736,6.46019 7.3537,10.10488 3.9264,3.59555 5.388,5.59129 4.9434,6.75 -0.8506,2.21658 -6.6706,2.10602 -13.5115,-0.25667 z m -54.4178,-2.63341 c -6.5367,-2.09372 -11.9843,-7.62627 -14.6816,-14.91067 -2.496,-6.74072 -2.1455,-9.81198 1.3837,-12.12441 3.5293,-2.31245 5.6705,-1.17833 12.011,6.36174 12.4757,14.83609 13.1711,15.29464 24.5221,16.17098 l 7.5,0.57902 -7,2.32114 c -9.0032,2.98539 -17.6041,3.56597 -23.7352,1.6022 z m -181.9903,-10.55742 c -2.6798,-1.52097 -12.564,-18.8647 -13.7114,-24.059152 -2.9227,-13.23159 6.9469,-14.78563 13.3467,-2.10154 0.901,1.78569 2.3136,8.058392 3.1391,13.939342 1.2162,8.66401 1.2591,10.93056 0.2261,11.94669 -0.8842,0.8697 -1.8039,0.95388 -3.0005,0.27466 z m -50.2535,-36.137332 c -7.0136,-12.15426 -10.2532,-15.68088 -25.8852,-28.17843 -18.1291,-14.494 -27.8152,-21.04896 -39.6358,-26.82314 -15.2045,-7.42712 -25.1007,-9.96279 -41,-10.50531 -7.425,-0.25336 -13.8758,-0.81452 -14.3351,-1.24701 -1.0886,-1.02508 1.8544,-6.6899 4.0955,-7.88312 0.9568,-0.50943 5.2078,-1.50727 9.4466,-2.21742 29.5304,-4.94732 78.902,20.26778 99.6577,50.89724 2.1196,3.12793 4.8295,7.60591 6.022,9.95107 2.2418,4.40871 7.5963,23.08645 6.8362,23.84649 -0.2363,0.23632 -2.5772,-3.29184 -5.2019,-7.84037 z m 27.6742,0.48105 c -0.7176,-0.24985 -4.1537,-4.79606 -7.6357,-10.10269 -5.2021,-7.92809 -6.6037,-10.98093 -7.8609,-17.12181 -2.3737,-11.59564 1.0032,-14.39756 9.0505,-7.50938 6.6645,5.70462 8.349,9.34676 9.7982,21.18543 0.7104,5.80428 1.0682,11.13586 0.7949,11.84797 -0.6059,1.57897 -2.3922,2.31144 -4.147,1.70048 z m -218.6952,-12.66064 c -2.2,-1.31485 -5.8935,-2.89782 -8.2078,-3.51772 -2.3143,-0.6199 -4.4808,-1.56889 -4.8145,-2.10886 -2.2083,-3.57308 5.782,-9.96388 12.4576,-9.96388 3.7767,0 4.8842,0.55637 8.6963,4.36842 4.7117,4.71174 5.4381,7.65931 2.8117,11.40907 -2.0395,2.91179 -5.8678,2.84636 -10.9433,-0.18703 z m 588.2388,-28.18496 c -1.6687,-1.66875 9.5506,-13.41042 14.2343,-14.89696 2.585,-0.82046 2.5973,-2.19272 0.027,-3.00854 -1.1,-0.34913 -2,-1.05445 -2,-1.56739 0,-1.91358 -2.7981,-0.81207 -8.0694,3.17665 -7.3827,5.5864 -22.4775,12.89074 -26.6394,12.89074 -3.8244,0 -5.2545,-2.12462 -3.1531,-4.6843 2.9055,-3.53897 15.7989,-10.8943 25.051,-14.29082 8.0992,-2.97331 10.0791,-4.1336 12.0171,-7.04235 4.0257,-6.04236 14.5542,-9.56707 20.8221,-6.97081 3.1865,1.3199 5.9717,5.45307 5.9717,8.86189 0,3.02204 -4.7212,7.95858 -8.8237,9.22616 -2.7307,0.84373 -4.7778,2.66372 -7.9588,7.0759 -3.4362,4.76616 -5.5112,6.52128 -10.5,8.88138 -5.9597,2.81942 -9.7063,3.62085 -10.9787,2.34845 z m -379.0721,-9.07217 c -0.3667,-0.36666 -0.6667,-1.5045 -0.6667,-2.52851 0,-1.02402 -1.3368,-4.51006 -2.9707,-7.74676 -3.9794,-7.88321 -7.3999,-21.26909 -6.568,-25.70358 1.3181,-7.02616 10.0272,-6.49799 14.5534,0.88261 6.2295,10.15836 7.8381,21.21079 4.1415,28.45664 -2.6674,5.22864 -6.7262,8.40296 -8.4895,6.6396 z m 11.3421,-32.82268 c -0.7213,-0.8692 -1.6411,-5.05218 -2.0438,-9.29551 -0.4028,-4.24333 -1.4103,-9.29014 -2.2388,-11.21514 -0.8286,-1.925 -1.82,-7.55218 -2.2031,-12.50485 -0.6415,-8.29245 -0.5258,-9.22201 1.4627,-11.75 2.7865,-3.54249 7.2355,-3.69473 10.3119,-0.35286 3.0288,3.29014 7.7405,16.22516 7.7195,21.19255 -0.024,5.67077 -6.5157,24.41516 -8.4557,24.41516 -0.2189,0 -1.0376,0.24548 -1.8195,0.54551 -0.7819,0.30003 -2.0118,-0.16566 -2.7332,-1.03486 z m 372.569,-29.76065 c -0.2532,-1.2375 -0.6773,-4.275 -0.9426,-6.75 -0.2652,-2.475 -1.0395,-6.99176 -1.7205,-10.03724 -0.6811,-3.04548 -0.9222,-6.79673 -0.5358,-8.33612 1.985,-7.90905 11.6726,-10.42132 17.5442,-4.54972 4.4836,4.48367 4.3267,10.45655 -0.4857,18.48191 -3.9367,6.56499 -10.1377,13.44117 -12.1213,13.44117 -0.7029,0 -1.4851,-1.0125 -1.7383,-2.25 z m -30.5778,-1.12756 c 0,-0.75765 0.675,-1.93775 1.5,-2.62244 2.0878,-1.73268 1.8864,-4.1868 -1,-12.18861 -3.3729,-9.35038 -3.2767,-13.18852 0.4231,-16.88831 7.2647,-7.26475 19.2134,-0.43297 17.791,10.17217 -0.5801,4.3244 -4.9926,14.44939 -7.5108,17.23404 -1.7966,1.98674 -8.3993,5.67071 -10.1635,5.67071 -0.5719,0 -1.0398,-0.6199 -1.0398,-1.37756 z m -30.3298,-9.37244 c -4.0469,-6.44433 -4.6702,-8.01243 -4.6702,-11.75 0,-7.02502 4.0855,-11.44248 10.6151,-11.47776 4.8245,-0.0261 8.512,2.45618 10.3923,6.99565 1.8046,4.35668 -0.091,10.03321 -5.2041,15.57973 -5.1798,5.61942 -7.9133,5.7796 -11.1331,0.65238 z m 102.681,-74.95192 c -1.2192,-2.91784 -1.3204,-4.45749 -0.478,-7.2692 2.4197,-8.07622 5.9611,-9.06296 8.7314,-2.43281 1.6623,3.97837 0.8456,8.14404 -2.2721,11.589 -2.4953,2.75726 -4.2755,2.19564 -5.9813,-1.88699 z m -37.7682,-12.54808 c -2.607,-9.19816 -3.4282,-23.30214 -1.5601,-26.79282 2.7607,-5.15838 9.0866,-4.3327 11.5255,1.50434 3.084,7.38114 0.8483,18.23266 -4.9513,24.03226 -2.7514,2.75145 -4.4684,3.18162 -5.0141,1.25622 z m -230.583,-37.73747 c -15.7081,-0.76538 -46.7697,-4.87644 -57.2072,-7.57148 -16.5479,-4.27276 -60.1638,-25.40339 -57.6415,-27.92564 0.239,-0.23902 3.3402,0.48863 6.8916,1.61701 14.5819,4.63308 71.3585,13.30101 120.1545,18.34365 8.0835,0.83537 15.8568,2.04714 17.2739,2.69283 4.4657,2.03471 4.7481,7.87284 0.5287,10.93128 -3.2754,2.37416 -10.7471,2.85045 -30,1.91235 z m 69.4105,-17.08973 c -6.1193,-1.77629 -38.0718,-19.22292 -45.3492,-24.76149 -4.0913,-3.11372 -12.4163,-10.35703 -18.5,-16.09625 -28.1541,-26.55983 -38.0776,-37.06506 -35.0128,-37.06506 0.3017,0 9.9946,5.62756 21.5398,12.5057 22.5878,13.45683 29.1536,16.97611 40.9659,21.95792 13.1982,5.56629 44.4682,24.3184 49.4713,29.6671 5.0618,5.41152 5.8473,9.49648 2.4745,12.86928 -2.187,2.18696 -9.702,2.63181 -15.5895,0.9228 z m 186.0749,-0.94648 c -0.348,-0.56302 0.2697,-3.82552 1.3726,-7.25 4.2398,-13.16435 3.8264,-17.11872 -2.1718,-20.77609 -4.7019,-2.86695 -7.4074,-2.4729 -21.9676,3.19953 -12.2483,4.77177 -13.8792,5.15713 -22.2186,5.25 -10.3054,0.11478 -18.5,-1.87324 -18.5,-4.48811 0,-1.84336 3.8526,-3.01487 15.9188,-4.84062 4.3687,-0.66105 13.1352,-3.37309 21.3236,-6.59679 16.6789,-6.56634 21.3933,-6.99692 29.8272,-2.72424 10.7293,5.43553 12.839,14.19872 6.4676,26.86564 -2.9662,5.89714 -7.6904,12.38436 -9.0187,12.38436 -0.2202,0 -0.6852,-0.46066 -1.0331,-1.02368 z m 34.9731,-8.18409 c 0.034,-6.02246 -0.4481,-8.28926 -2.7702,-13.0181 -3.3187,-6.75824 -6.0641,-8.92645 -15.0288,-11.86937 -3.6627,-1.20238 -6.6595,-2.76294 -6.6595,-3.4679 0,-1.96796 6.6677,-3.72325 12.1443,-3.19702 2.7011,0.25955 7.4623,1.77663 10.5804,3.37129 7.5985,3.88602 9.538,7.32716 10.0337,17.80295 0.3293,6.9594 0.059,8.71285 -1.9379,12.58592 -1.4296,2.77239 -3.1043,4.61219 -4.362,4.79223 -1.8986,0.27177 -2.0386,-0.2184 -2,-7 z m -339.9585,-6.82054 c -10.0078,-1.08193 -23.2275,-5.10373 -45,-13.6903 -10.45,-4.12125 -20.0749,-7.90811 -21.3887,-8.41526 -5.0079,-1.93318 -1.1592,-1.77385 4.4746,0.18524 11.5258,4.00794 33.759,9.95299 44.7607,11.96878 10.5878,1.93995 34.8617,8.12782 39.1534,9.98091 2.4865,1.07362 -11.9758,1.05431 -22,-0.0294 z m 43.3404,-2.36667 c -8.2944,-2.96272 -47.845,-25.1503 -56.3404,-31.60655 -13.2176,-10.04492 -30.3747,-26.73197 -36.3046,-35.30995 -7.1283,-10.31143 -7.4475,-12.10205 -1.0875,-6.09998 2.9657,2.7987 7.4171,6.67111 9.8921,8.60537 5.9841,4.67672 25.7968,16.676 36.0301,21.82125 4.5159,2.27051 15.244,8.50321 23.8403,13.85043 8.5963,5.34722 19.1039,11.86372 23.3503,14.48109 7.3248,4.51486 13.7793,10.73274 13.7793,13.27418 0,2.60925 -7.1194,3.14169 -13.1596,0.98416 z m 120.5245,-3.09654 c -0.8334,-2.17167 1.4338,-4.50848 4.3742,-4.50848 2.1226,0 2.3922,-0.3352 1.81,-2.25 -2.4865,-8.1777 -2.2761,-10.41719 1.8705,-19.90966 0.9913,-2.26912 -1.7629,-3.04688 -13.3153,-3.76019 -7.5954,-0.46899 -9.6073,-0.92707 -10.5,-2.39074 -2.6153,-4.28794 10.3723,-10.23855 19.8513,-9.0954 15.3139,1.84684 24.1888,5.92165 34.3515,15.77215 10.4541,10.13286 14.6165,17.67811 7.4009,13.41578 -1.5018,-0.88711 -6.2396,-3.00692 -10.5286,-4.71069 -4.289,-1.70377 -10.0065,-4.2168 -12.7056,-5.58451 -2.699,-1.36771 -5.0955,-2.48674 -5.3254,-2.48674 -0.23,0 -0.1866,2.88399 0.096,6.40887 0.283,3.52487 0.051,7.73987 -0.5166,9.36666 l -1.0311,2.95781 12.1515,2.38333 c 9.0754,1.78 12.1515,2.76305 12.1515,3.88333 0,2.28708 -39.2617,2.78449 -40.1351,0.50848 z m 67.3851,-7.14694 c -2.0371,-0.59155 -2.3011,-1.99279 -0.5,-2.65321 1,-0.36666 1,-0.72333 0,-1.78333 -0.6875,-0.72875 -1.25,-2.135 -1.25,-3.125 0,-2.00883 -1.2446,-2.27462 -3.9276,-0.83875 -1.2527,0.67041 -2.3674,0.54052 -3.6843,-0.4293 -1.8507,-1.36302 -1.8507,-1.46054 -4e-4,-4.92456 1.0382,-1.9437 3.9632,-5.83094 6.5,-8.63832 4.2624,-4.71709 5.1074,-5.18755 11.138,-6.20139 7.2911,-1.22575 11.4405,-0.60113 12.3867,1.86459 1.0459,2.72555 -2.169,6.2853 -8.0088,8.86792 -4.9155,2.1739 -5.3949,2.64751 -4.4559,4.40215 0.5788,1.0814 1.0523,3.34576 1.0523,5.03192 0,2.53578 0.3991,3.06574 2.3089,3.06574 1.2698,0 3.1105,0.58618 4.0903,1.30261 1.6708,1.22175 1.6762,1.38994 0.086,2.70927 -1.6981,1.40931 -12.3764,2.32518 -15.7357,1.34966 z m -107.5656,-15.95692 c -10.0278,-4.99706 -27.1943,-21.71246 -49.1976,-47.90462 -19.8009,-23.57057 -29.2321,-40.41864 -35.3847,-63.21181 -7.0511,-26.12208 -5.9548,-27.41495 6.7186,-7.92301 4.7794,7.35084 10.4186,15.33834 12.5316,17.75 2.113,2.41165 8.4485,10.45982 14.079,17.88482 14.0164,18.48378 34.8555,42.72075 51.1695,59.513 7.4877,7.70715 13.944,15.05282 14.3474,16.32372 0.9951,3.13551 -1.0375,7.65514 -4.0628,9.03356 -3.4779,1.58462 -4.3237,1.46309 -10.201,-1.46566 z m -42.6844,-3.05615 c -14.9481,-10.14649 -59.2488,-52.25608 -72.957,-69.34847 -15.5776,-19.42325 -44.543,-66.28643 -44.543,-72.06611 0,-0.59789 1.6493,1.08489 3.6651,3.73951 13.2332,17.42721 25.058,29.52902 105.6264,108.10081 10.8702,10.60082 20.5243,20.86865 21.4536,22.81741 1.5187,3.18473 1.5379,3.81459 0.1904,6.22579 -2.2013,3.93886 -8.0731,4.17095 -13.4355,0.53106 z m 132.6782,-19.30181 c -5.8969,-4.66129 -11.5105,-12.48783 -13.6479,-19.02814 -0.8122,-2.48519 -2.6145,-11.18805 -4.0052,-19.33971 -2.2503,-13.1902 -2.4161,-15.83125 -1.5068,-24 2.1333,-19.16397 2.5649,-20.88186 5.1493,-20.49373 1.7771,0.26691 2.6721,2.35105 5.8703,13.66991 2.0753,7.34525 4.9888,20.39525 6.4743,29 3.6717,21.26875 5.9337,29.60647 9.5693,35.27205 3.5741,5.56964 3.517,8.24293 -0.1851,8.67443 -1.8054,0.21043 -4.1363,-0.92352 -7.7182,-3.75481 z m -206.4536,-0.58578 c -4.2765,-1.87009 -11.9265,-6.48036 -17,-10.24506 -5.0735,-3.76471 -13.6424,-10.12302 -19.042,-14.1296 -5.3996,-4.00657 -9.6012,-7.50098 -9.3368,-7.76535 0.2644,-0.26437 1.5322,0.20777 2.8174,1.04921 1.2853,0.84144 10.543,5.93989 20.5729,11.3299 29.4475,15.82505 45.0472,29.84436 21.9885,19.7609 z m 142.7048,0.65919 c -1.6888,-1.02985 -4.6514,-4.29067 -6.5835,-7.24626 -5.8228,-8.90708 -26.4408,-43.08826 -28.5759,-47.37381 -4.6022,-9.23778 -12.3631,-35.34728 -14.1532,-47.61485 -3.0403,-20.8354 -1.2046,-20.19027 13.1319,4.61485 12.3691,21.40096 44.7637,82.19593 46.5708,87.39922 1.7254,4.96822 1.47,6.90222 -1.274,9.64623 -2.94,2.93994 -5.022,3.07118 -9.1161,0.57462 z m 23.6409,-12.41031 c -6.7329,-7.70026 -11.8491,-18.55854 -13.7285,-29.1364 -0.789,-4.44035 -2.5187,-18.40576 -3.8439,-31.03424 -2.1803,-20.77708 -2.4505,-26.46051 -1.0663,-22.43225 0.9758,2.83982 12.5116,41.81523 15.9511,53.89313 1.9578,6.875 5.1476,17.20092 7.0885,22.94648 1.9408,5.74557 3.5288,10.80807 3.5288,11.25 0,2.20862 -3.0406,0.10475 -7.9297,-5.48672 z m -64.7327,-19.52444 c -0.5844,-0.92693 -6.3194,-7.98532 -12.7444,-15.68532 -6.425,-7.7 -14.1358,-18.18606 -17.1352,-23.30236 -4.9224,-8.39669 -13.5194,-26.6682 -18.5358,-39.39503 -1.0498,-2.66346 -3.0671,-7.12839 -4.4827,-9.92206 -4.915,-9.69914 -1.6358,-5.91932 4.614,5.3185 11.029,19.83148 18.6086,32.16702 25.1861,40.98948 3.5224,4.72454 9.9268,15.05238 14.232,22.95077 4.3053,7.89838 8.6686,15.56661 9.6962,17.04049 1.0276,1.47389 1.5003,2.90728 1.0505,3.18532 -0.4499,0.27804 -1.2962,-0.25287 -1.8807,-1.17979 z"
       id="path3825"
       inkscape:connector-curvature="0" />
  </g>
</svg>
