<?xml version="1.0" encoding="UTF-8" standalone="no"?>
<!-- Created with Inkscape (http://www.inkscape.org/) -->

<svg
   xmlns:dc="http://purl.org/dc/elements/1.1/"
   xmlns:cc="http://creativecommons.org/ns#"
   xmlns:rdf="http://www.w3.org/1999/02/22-rdf-syntax-ns#"
   xmlns:svg="http://www.w3.org/2000/svg"
   xmlns="http://www.w3.org/2000/svg"
   xmlns:xlink="http://www.w3.org/1999/xlink"
   xmlns:sodipodi="http://sodipodi.sourceforge.net/DTD/sodipodi-0.dtd"
   xmlns:inkscape="http://www.inkscape.org/namespaces/inkscape"
   id="svg2"
   version="1.1"
   inkscape:version="0.47 r22583"
   width="800"
   height="600"
   sodipodi:docname="imagemap_ground.jpg">
  <metadata
     id="metadata8">
    <rdf:RDF>
      <cc:Work
         rdf:about="">
        <dc:format>image/svg+xml</dc:format>
        <dc:type
           rdf:resource="http://purl.org/dc/dcmitype/StillImage" />
        <dc:title></dc:title>
      </cc:Work>
    </rdf:RDF>
  </metadata>
  <defs
     id="defs6">
    <inkscape:perspective
       sodipodi:type="inkscape:persp3d"
       inkscape:vp_x="0 : 0.5 : 1"
       inkscape:vp_y="0 : 1000 : 0"
       inkscape:vp_z="1 : 0.5 : 1"
       inkscape:persp3d-origin="0.5 : 0.33333333 : 1"
       id="perspective10" />
    <inkscape:perspective
       id="perspective2826"
       inkscape:persp3d-origin="0.5 : 0.33333333 : 1"
       inkscape:vp_z="1 : 0.5 : 1"
       inkscape:vp_y="0 : 1000 : 0"
       inkscape:vp_x="0 : 0.5 : 1"
       sodipodi:type="inkscape:persp3d" />
    <inkscape:perspective
       id="perspective2850"
       inkscape:persp3d-origin="0.5 : 0.33333333 : 1"
       inkscape:vp_z="1 : 0.5 : 1"
       inkscape:vp_y="0 : 1000 : 0"
       inkscape:vp_x="0 : 0.5 : 1"
       sodipodi:type="inkscape:persp3d" />
    <inkscape:perspective
       id="perspective2872"
       inkscape:persp3d-origin="0.5 : 0.33333333 : 1"
       inkscape:vp_z="1 : 0.5 : 1"
       inkscape:vp_y="0 : 1000 : 0"
       inkscape:vp_x="0 : 0.5 : 1"
       sodipodi:type="inkscape:persp3d" />
  </defs>
  <sodipodi:namedview
     pagecolor="#ffffff"
     bordercolor="#666666"
     borderopacity="1"
     objecttolerance="10"
     gridtolerance="10"
     guidetolerance="10"
     inkscape:pageopacity="0"
     inkscape:pageshadow="2"
     inkscape:window-width="1366"
     inkscape:window-height="695"
     id="namedview4"
     showgrid="false"
     inkscape:zoom="0.55625733"
     inkscape:cx="1359.1164"
     inkscape:cy="365.09398"
     inkscape:window-x="0"
     inkscape:window-y="25"
     inkscape:window-maximized="1"
     inkscape:current-layer="svg2" />
  <image
     xlink:href="file:///media/Stockage/PROJETS/Sous%20le%20masque/game/UI/imagemap_ground.jpg"
     width="800"
     height="600"
     id="image12"
     x="0"
     y="0"
     inkscape:export-filename="/media/Stockage/PROJETS/Sous le masque/game/UI/imagemap_ground.jpg.png"
     inkscape:export-xdpi="90"
     inkscape:export-ydpi="90" />
  <image
     y="3.0844266"
     x="805.78925"
     id="image2828"
     height="600"
     width="800"
     xlink:href="file:///media/Stockage/PROJETS/Sous%20le%20masque/game/UI/imagemap_hover.jpg"
     inkscape:export-filename="/media/Stockage/PROJETS/Sous le masque/game/UI/imagemap_hover.jpg.png"
     inkscape:export-xdpi="90"
     inkscape:export-ydpi="90" />
  <rect
     style="color:#000000;fill:#c00002;fill-opacity:1;fill-rule:evenodd;stroke:none;stroke-width:0.10000000000000001;marker:none;visibility:visible;display:inline;overflow:visible;enable-background:accumulate"
     id="rect2832"
     width="65.841827"
     height="52.134144"
     x="14.606549"
     y="214.16238"
     ry="4.5534945" />
  <text
     xml:space="preserve"
     style="font-size:16px;font-style:italic;font-variant:normal;font-weight:bold;font-stretch:normal;fill:#ffffff;fill-opacity:1;stroke:none;font-family:LMMathSymbols5;-inkscape-font-specification:LMMathSymbols5 Bold Italic"
     x="20.224451"
     y="261.35278"
     id="text2834"><tspan
       sodipodi:role="line"
       id="tspan2836"
       x="20.224451"
       y="261.35278">Sport</tspan></text>
  <rect
     style="color:#000000;fill:#c00002;fill-opacity:1;fill-rule:evenodd;stroke:none;stroke-width:0.1;marker:none;visibility:visible;display:inline;overflow:visible;enable-background:accumulate"
     id="rect2838"
     width="55.729603"
     height="11.685239"
     x="214.3792"
     y="104.72564"
     ry="4.5534945" />
  <rect
     ry="4.5534945"
     y="135.73647"
     x="463.36469"
     height="11.685239"
     width="55.729603"
     id="rect2840"
     style="color:#000000;fill:#c00002;fill-opacity:1;fill-rule:evenodd;stroke:none;stroke-width:0.1;marker:none;visibility:visible;display:inline;overflow:visible;enable-background:accumulate" />
  <rect
     ry="6.4799728"
     y="367.64352"
     x="613.47504"
     height="16.628994"
     width="57.0779"
     id="rect2840-2"
     style="color:#000000;fill:#c00002;fill-opacity:1;fill-rule:evenodd;stroke:none;stroke-width:0.1;marker:none;visibility:visible;display:inline;overflow:visible;enable-background:accumulate" />
  <path
     style="fill:#ffffff"
     d="m 47.930955,246.50813 c -0.484695,-0.19272 -1.151725,-0.83804 -1.325207,-1.28209 -0.262778,-0.6727 -0.136794,-1.50756 0.956153,-6.33584 0.60008,-2.65086 1.091032,-4.93399 1.091032,-5.07364 0,-0.13964 -1.246468,-1.47032 -2.769971,-2.95707 -2.228201,-2.1745 -2.800062,-2.66289 -2.923917,-2.49722 -0.697462,0.93283 -4.980082,5.52135 -5.33424,5.71527 -0.401571,0.21989 -1.1161,0.25154 -6.521546,0.28886 l -6.070568,0.0419 -0.485977,-0.3307 c -0.698466,-0.47529 -1.039965,-1.00162 -1.117308,-1.72202 -0.09284,-0.86468 0.410368,-1.79944 1.188077,-2.20696 0.547894,-0.28711 0.756222,-0.29794 4.975774,-0.25883 2.422146,0.0225 4.473375,-0.0102 4.5582,-0.0725 0.08483,-0.0624 2.807255,-3.1997 6.049832,-6.97193 3.242579,-3.77223 5.993439,-6.9723 6.113037,-7.11128 0.205362,-0.2386 0.125473,-0.25268 -1.433016,-0.25268 l -1.650508,0 -2.932046,3.40126 c -1.612585,1.87071 -3.093356,3.46262 -3.290545,3.53759 -0.872093,0.33157 -1.82067,0.024 -2.269484,-0.73577 -0.276398,-0.4679 -0.299509,-1.2352 -0.05056,-1.67763 0.252434,-0.44859 6.084094,-7.16564 6.660552,-7.67176 l 0.484057,-0.42503 4.384726,-0.10576 c 4.243336,-0.10236 5.510276,-0.0515 6.117421,0.24549 0.158841,0.0777 1.621438,1.46648 3.250281,3.08617 l 2.9615,2.94491 2.308769,-2.32029 c 1.269835,-1.27618 2.484253,-2.41335 2.698723,-2.52707 0.959472,-0.50883 2.192405,-0.01 2.556395,1.0345 0.119386,0.34258 0.161352,0.74765 0.101935,0.98441 -0.113895,0.45367 -5.505551,6.15019 -6.422547,6.78568 -0.62451,0.43279 -1.471875,0.52797 -2.054718,0.23079 -0.190677,-0.0972 -1.166493,-0.98864 -2.168528,-1.98096 l -1.821905,-1.80423 -2.582059,2.9883 c -1.420121,1.64356 -2.60581,3.05365 -2.63488,3.13354 -0.02894,0.0799 1.087372,1.29219 2.481018,2.69402 1.393605,1.40183 2.603213,2.7317 2.687997,2.95526 0.08474,0.22356 0.154116,0.70656 0.154116,1.07333 0,0.75013 -2.816788,13.48128 -3.106891,14.04228 -0.542791,1.0497 -1.778023,1.54924 -2.81317,1.1377 z m 6.714224,-33.94798 c -1.578749,-0.56494 -2.684762,-2.27752 -2.472251,-3.82801 0.23341,-1.70282 1.597135,-2.99246 3.356389,-3.17403 0.672478,-0.0694 0.89929,-0.0188 1.713202,0.38184 2.310216,1.13731 2.796528,3.9082 1.001055,5.70368 -0.964155,0.96411 -2.425347,1.33629 -3.598395,0.91652 z"
     id="path2878" />
  <text
     xml:space="preserve"
     style="font-size:16px;font-style:italic;font-variant:normal;font-weight:bold;font-stretch:normal;fill:#f9f9f9;fill-opacity:1;stroke:none;font-family:LMMathSymbols5;-inkscape-font-specification:LMMathSymbols5 Bold Italic"
     x="207.63771"
     y="115.512"
     id="text2880"><tspan
       sodipodi:role="line"
       id="tspan2882"
       x="207.63771"
       y="115.512">Science</tspan></text>
  <text
     xml:space="preserve"
     style="font-size:16;font-style:italic;font-variant:normal;font-weight:bold;font-stretch:normal;fill:#ffffff;fill-opacity:1;stroke:none;font-family:LMMathSymbols5;-inkscape-font-specification:LMMathSymbols5 Bold Italic"
     x="456.6232"
     y="147.87112"
     id="text2884"><tspan
       sodipodi:role="line"
       id="tspan2886"
       x="456.6232"
       y="147.87112">Culture</tspan></text>
  <text
     xml:space="preserve"
     style="font-size:16px;font-style:italic;font-variant:normal;font-weight:bold;font-stretch:normal;fill:#ffffff;fill-opacity:1;stroke:none;font-family:LMMathSymbols5;-inkscape-font-specification:LMMathSymbols5 Bold Italic"
     x="602.23926"
     y="382.47476"
     id="text2888"><tspan
       sodipodi:role="line"
       id="tspan2890"
       x="602.23926"
       y="382.47476">Rentrer</tspan></text>
  <rect
     ry="4.5534945"
     y="214.16238"
     x="819.90698"
     height="52.134144"
     width="65.841835"
     id="rect2892"
     style="color:#000000;fill:#edab3a;fill-opacity:1;fill-rule:evenodd;stroke:none;stroke-width:0.10000000000000001;marker:none;visibility:visible;display:inline;overflow:visible;enable-background:accumulate" />
  <text
     id="text2894"
     y="261.35278"
     x="825.5249"
     style="font-size:16px;font-style:italic;font-variant:normal;font-weight:bold;font-stretch:normal;fill:#ffffff;fill-opacity:1;stroke:none;font-family:LMMathSymbols5;-inkscape-font-specification:LMMathSymbols5 Bold Italic"
     xml:space="preserve"><tspan
       y="261.35278"
       x="825.5249"
       id="tspan2896"
       sodipodi:role="line">Sport</tspan></text>
  <rect
     ry="7.1805105"
     y="104.72564"
     x="1019.6795"
     height="18.426723"
     width="55.729607"
     id="rect2898"
     style="color:#000000;fill:#edab3a;fill-opacity:1;fill-rule:evenodd;stroke:none;stroke-width:0.1;marker:none;visibility:visible;display:inline;overflow:visible;enable-background:accumulate" />
  <rect
     style="color:#000000;fill:#edab3a;fill-opacity:1;fill-rule:evenodd;stroke:none;stroke-width:0.1;marker:none;visibility:visible;display:inline;overflow:visible;enable-background:accumulate"
     id="rect2900"
     width="55.729607"
     height="13.820043"
     x="1268.665"
     y="135.73647"
     ry="5.3853827" />
  <rect
     style="color:#000000;fill:#edab3a;fill-opacity:1;fill-rule:evenodd;stroke:none;stroke-width:0.1;marker:none;visibility:visible;display:inline;overflow:visible;enable-background:accumulate"
     id="rect2902"
     width="57.077904"
     height="20.786243"
     x="1418.7754"
     y="367.64352"
     ry="8.099966" />
  <path
     id="path2904"
     d="m 853.2313,246.50813 c -0.48469,-0.19272 -1.15172,-0.83804 -1.3252,-1.28209 -0.26278,-0.6727 -0.1368,-1.50756 0.95615,-6.33584 0.60008,-2.65086 1.09103,-4.93399 1.09103,-5.07364 0,-0.13964 -1.24647,-1.47032 -2.76997,-2.95707 -2.2282,-2.1745 -2.80006,-2.66289 -2.92392,-2.49722 -0.69746,0.93283 -4.98008,5.52135 -5.33423,5.71527 -0.40158,0.21989 -1.1161,0.25154 -6.52155,0.28886 l -6.07057,0.0419 -0.48598,-0.3307 c -0.69846,-0.47529 -1.03996,-1.00162 -1.1173,-1.72202 -0.0928,-0.86468 0.41036,-1.79944 1.18807,-2.20696 0.5479,-0.28711 0.75623,-0.29794 4.97578,-0.25883 2.42214,0.0225 4.47337,-0.0102 4.5582,-0.0725 0.0848,-0.0624 2.80725,-3.1997 6.04983,-6.97193 3.24258,-3.77223 5.99344,-6.9723 6.11304,-7.11128 0.20536,-0.2386 0.12547,-0.25268 -1.43302,-0.25268 l -1.65051,0 -2.93204,3.40126 c -1.61259,1.87071 -3.09336,3.46262 -3.29055,3.53759 -0.87209,0.33157 -1.82067,0.024 -2.26948,-0.73577 -0.2764,-0.4679 -0.29951,-1.2352 -0.0506,-1.67763 0.25243,-0.44859 6.08409,-7.16564 6.66055,-7.67176 l 0.48406,-0.42503 4.38472,-0.10576 c 4.24334,-0.10236 5.51028,-0.0515 6.11742,0.24549 0.15884,0.0777 1.62144,1.46648 3.25028,3.08617 l 2.9615,2.94491 2.30877,-2.32029 c 1.26984,-1.27618 2.48426,-2.41335 2.69873,-2.52707 0.95947,-0.50883 2.1924,-0.01 2.55639,1.0345 0.11939,0.34258 0.16135,0.74765 0.10194,0.98441 -0.1139,0.45367 -5.50555,6.15019 -6.42255,6.78568 -0.62451,0.43279 -1.47188,0.52797 -2.05472,0.23079 -0.19068,-0.0972 -1.16649,-0.98864 -2.16853,-1.98096 l -1.8219,-1.80423 -2.58206,2.9883 c -1.42012,1.64356 -2.60581,3.05365 -2.63488,3.13354 -0.0289,0.0799 1.08737,1.29219 2.48102,2.69402 1.3936,1.40183 2.60321,2.7317 2.68799,2.95526 0.0847,0.22356 0.15412,0.70656 0.15412,1.07333 0,0.75013 -2.81679,13.48128 -3.10689,14.04228 -0.54279,1.0497 -1.77802,1.54924 -2.81317,1.1377 z m 6.71423,-33.94798 c -1.57875,-0.56494 -2.68476,-2.27752 -2.47225,-3.82801 0.23341,-1.70282 1.59713,-2.99246 3.35639,-3.17403 0.67247,-0.0694 0.89929,-0.0188 1.7132,0.38184 2.31021,1.13731 2.79653,3.9082 1.00105,5.70368 -0.96415,0.96411 -2.42534,1.33629 -3.59839,0.91652 z"
     style="fill:#ffffff" />
  <text
     id="text2906"
     y="115.51201"
     x="1012.9378"
     style="font-size:16px;font-style:italic;font-variant:normal;font-weight:bold;font-stretch:normal;fill:#f9f9f9;fill-opacity:1;stroke:none;font-family:LMMathSymbols5;-inkscape-font-specification:LMMathSymbols5 Bold Italic"
     xml:space="preserve"><tspan
       y="115.51201"
       x="1012.9378"
       id="tspan2908"
       sodipodi:role="line">Science</tspan></text>
  <text
     id="text2910"
     y="147.87112"
     x="1261.9236"
     style="font-size:16px;font-style:italic;font-variant:normal;font-weight:bold;font-stretch:normal;fill:#ffffff;fill-opacity:1;stroke:none;font-family:LMMathSymbols5;-inkscape-font-specification:LMMathSymbols5 Bold Italic"
     xml:space="preserve"><tspan
       y="147.87112"
       x="1261.9236"
       id="tspan2912"
       sodipodi:role="line">Culture</tspan></text>
  <text
     id="text2914"
     y="382.47479"
     x="1407.5396"
     style="font-size:16px;font-style:italic;font-variant:normal;font-weight:bold;font-stretch:normal;fill:#ffffff;fill-opacity:1;stroke:none;font-family:LMMathSymbols5;-inkscape-font-specification:LMMathSymbols5 Bold Italic"
     xml:space="preserve"><tspan
       y="382.47479"
       x="1407.5396"
       id="tspan2916"
       sodipodi:role="line">Rentrer</tspan></text>
</svg>
